<svg width="69" height="60" viewBox="0 0 69 60" fill="none" xmlns="http://www.w3.org/2000/svg">
<g id="Group 111">
<rect id="Rectangle 209" width="69" height="60" rx="10" fill="#DC6563"/>
<path id="Vector" d="M31.4366 38.0725L28.0266 33.93C27.5592 33.3626 26.7754 33.1712 26.1017 33.4583L18.4017 36.7395C17.6661 37.0539 17.2673 37.84 17.4461 38.6193L19.0961 45.7285C19.2679 46.4668 19.9279 47 20.7048 47C27.6279 47 34.0216 44.7852 39.2466 41.0597L33.7466 36.8352C32.9972 37.2795 32.2273 37.7033 31.4366 38.0725ZM56.5715 43.3155L45.6609 34.9348C49.9784 29.5277 52.5978 22.7261 52.5978 15.2819C52.5978 14.5163 52.0684 13.8532 51.319 13.6823L44.1691 12.0418C43.3922 11.864 42.5947 12.2673 42.2784 12.9919L38.9785 20.648C38.6897 21.3179 38.8822 22.104 39.4528 22.562L43.6191 25.9526C42.7803 27.7367 41.701 29.391 40.4566 30.929L16.1261 12.2332C15.6448 11.864 14.9573 11.9461 14.5792 12.4246L13.2317 14.1472C12.8605 14.6257 12.943 15.3093 13.4242 15.6784L53.8765 46.7607C54.3578 47.1299 55.0453 47.0479 55.4234 46.5693L56.7709 44.8399C57.1421 44.3751 57.0527 43.6846 56.5715 43.3155Z" fill="white"/>
</g>
</svg>
