<svg width="47" height="38" viewBox="0 0 47 38" fill="none" xmlns="http://www.w3.org/2000/svg">
<path id="Vector" d="M46.5461 33.9994L34.9576 24.9477C35.8822 23.1657 36.4249 21.1529 36.4249 18.9999V15.4374C36.4249 14.7813 35.8991 14.2499 35.2499 14.2499H34.0749C33.4257 14.2499 32.8999 14.7813 32.8999 15.4374V18.9999C32.8999 20.3299 32.6091 21.5827 32.1127 22.7256L30.1629 21.2027C30.3906 20.505 30.5507 19.7762 30.5507 19.0006V7.12495C30.5507 3.1899 27.3943 0 23.5007 0C19.607 0 16.4507 3.1899 16.4507 7.12495V10.4915L3.33914 0.250116C2.82654 -0.152147 2.08776 -0.0593747 1.68973 0.458669L0.247419 2.33416C-0.150612 2.85147 -0.0588151 3.59736 0.453779 4.00036L43.6615 37.7496C44.174 38.1526 44.9121 38.0591 45.3109 37.5411L46.7532 35.6656C47.1505 35.1483 47.0587 34.4024 46.5461 33.9994ZM29.3749 34.4373H25.2624V31.9309C26.1187 31.8122 26.9405 31.594 27.7351 31.3142L24.0551 28.4397C23.5624 28.4694 23.0703 28.5043 22.5607 28.4545C18.4592 28.0501 15.3094 24.8453 14.3959 20.8954L10.5749 17.9096V18.418C10.5749 25.0709 15.2727 31.0017 21.7374 31.9027V34.4373H17.6249C16.9757 34.4373 16.4499 34.9687 16.4499 35.6248V36.8123C16.4499 37.4683 16.9757 37.9998 17.6249 37.9998H29.3749C30.0241 37.9998 30.5499 37.4683 30.5499 36.8123V35.6248C30.5499 34.9687 30.0241 34.4373 29.3749 34.4373Z" fill="white"/>
</svg>
