<svg width="47" height="37" viewBox="0 0 47 37" fill="none" xmlns="http://www.w3.org/2000/svg">
<path id="Vector" d="M46.5437 33.1066L42.5046 30.0349C43.6355 29.9337 44.649 29.0448 44.649 27.7872V9.2128C44.649 7.36981 42.5119 6.29293 40.9476 7.34813L32.8987 12.812V22.728L30.5486 20.9429V8.0781C30.5486 6.17007 28.977 4.6234 27.0382 4.6234H9.09698L3.33933 0.243603C2.82525 -0.146676 2.09086 -0.0599475 1.68694 0.44597L0.247531 2.26727C-0.149041 2.77319 -0.0609142 3.49593 0.453162 3.88621L3.1337 5.92433L30.5486 26.7826L43.6576 36.7564C44.1716 37.1467 44.906 37.0599 45.3099 36.554L46.7494 34.7255C47.1533 34.2268 47.0578 33.4968 46.5437 33.1066ZM2.3479 28.9219C2.3479 30.8299 3.9195 32.3766 5.8583 32.3766H27.0382C27.8607 32.3766 28.6098 32.0875 29.212 31.6177L2.3479 11.1786V28.9219Z" fill="white"/>
</svg>
