<svg id="Layer_1" data-name="Layer 1" xmlns="http://www.w3.org/2000/svg" xmlns:xlink="http://www.w3.org/1999/xlink" viewBox="0 0 500 340"><defs><style>.cls-1{fill:none;}.cls-2{fill:url(#radial-gradient);}.cls-3{clip-path:url(#clip-path);}.cls-4,.cls-5,.cls-6{opacity:0.4;}.cls-4{fill:url(#radial-gradient-2);}.cls-5{fill:url(#radial-gradient-3);}.cls-6{fill:url(#radial-gradient-4);}.cls-7,.cls-8{opacity:0.5;}.cls-7{fill:url(#radial-gradient-5);}.cls-8{fill:url(#radial-gradient-6);}.cls-9{opacity:0.8;}.cls-10{fill:url(#radial-gradient-7);}.cls-11{fill:url(#radial-gradient-8);}.cls-12{fill:url(#radial-gradient-9);}.cls-13{fill:url(#radial-gradient-10);}.cls-14{fill:url(#radial-gradient-11);}.cls-15{fill:url(#radial-gradient-12);}.cls-16{fill:url(#radial-gradient-13);}.cls-17{fill:url(#radial-gradient-14);}.cls-18{fill:url(#radial-gradient-15);}.cls-19{fill:url(#radial-gradient-16);}.cls-20{fill:url(#radial-gradient-17);}.cls-21{fill:url(#radial-gradient-18);}.cls-22{fill:url(#radial-gradient-19);}.cls-23{fill:url(#radial-gradient-20);}.cls-24{fill:url(#radial-gradient-21);}.cls-25{fill:url(#radial-gradient-22);}.cls-26{fill:url(#radial-gradient-23);}.cls-27{fill:url(#radial-gradient-24);}.cls-28{fill:url(#radial-gradient-25);}.cls-29{fill:url(#radial-gradient-26);}.cls-30{fill:url(#radial-gradient-27);}.cls-31{fill:url(#radial-gradient-28);}.cls-32{fill:url(#radial-gradient-29);}.cls-33{fill:url(#radial-gradient-30);}.cls-34{fill:url(#radial-gradient-31);}.cls-35{fill:url(#radial-gradient-32);}.cls-36{fill:url(#radial-gradient-33);}.cls-37{fill:url(#radial-gradient-34);}.cls-38{fill:url(#radial-gradient-35);}.cls-39{fill:url(#radial-gradient-36);}.cls-40{fill:url(#radial-gradient-37);}.cls-41{fill:url(#radial-gradient-38);}.cls-42{fill:url(#radial-gradient-39);}.cls-43{fill:url(#radial-gradient-40);}.cls-44{fill:url(#radial-gradient-41);}.cls-45{fill:url(#radial-gradient-42);}.cls-46{fill:url(#radial-gradient-43);}.cls-47{fill:url(#radial-gradient-44);}.cls-48{fill:url(#radial-gradient-45);}.cls-49{fill:url(#radial-gradient-46);}.cls-50,.cls-51{fill:#fff;}.cls-51{font-size:5.47px;font-family:Archivo-Regular, Archivo;}</style><radialGradient id="radial-gradient" cx="250" cy="169.02" r="266.58" gradientUnits="userSpaceOnUse"><stop offset="0" stop-color="#2d3285"/><stop offset="0.5" stop-color="#301d54"/><stop offset="1" stop-color="#050507"/></radialGradient><clipPath id="clip-path"><rect class="cls-1" x="-6.47" y="-1.96" width="512.93" height="341.96"/></clipPath><radialGradient id="radial-gradient-2" cx="408.84" cy="31.69" r="23.14" gradientTransform="translate(185.62 -689.49) rotate(69.84) scale(1.9 1.9)" gradientUnits="userSpaceOnUse"><stop offset="0" stop-color="#414da1"/><stop offset="0.11" stop-color="#46449b" stop-opacity="0.89"/><stop offset="0.3" stop-color="#4d3893" stop-opacity="0.73"/><stop offset="0.45" stop-color="#51318f" stop-opacity="0.63"/><stop offset="0.57" stop-color="#532e8d" stop-opacity="0.6"/><stop offset="1" stop-color="#0f113c" stop-opacity="0"/></radialGradient><radialGradient id="radial-gradient-3" cx="203.66" cy="64.02" r="23.14" gradientTransform="matrix(1.86, 0.23, -0.23, 1.86, -244.18, -63.92)" xlink:href="#radial-gradient-2"/><radialGradient id="radial-gradient-4" cx="136.48" cy="8.37" r="23.14" gradientTransform="translate(-258.05 -49.15) rotate(7.11) scale(1.87 1.87)" xlink:href="#radial-gradient-2"/><radialGradient id="radial-gradient-5" cx="157.27" cy="256.51" r="23.14" gradientTransform="translate(713.95 -338.73) rotate(74.6) scale(3.09 3.09)" xlink:href="#radial-gradient-2"/><radialGradient id="radial-gradient-6" cx="295.65" cy="217.81" r="23.14" gradientTransform="matrix(0.82, 2.98, -2.98, 0.82, 912.68, -838.63)" xlink:href="#radial-gradient-2"/><radialGradient id="radial-gradient-7" cx="370.77" cy="33.88" r="2.06" gradientTransform="matrix(-1.48, 0, 0, 1.48, 693.32, 1.03)" gradientUnits="userSpaceOnUse"><stop offset="0.15" stop-color="#fff"/><stop offset="0.22" stop-color="#f6f6f6" stop-opacity="0.96"/><stop offset="0.34" stop-color="#ddd" stop-opacity="0.86"/><stop offset="0.49" stop-color="#b4b4b4" stop-opacity="0.7"/><stop offset="0.67" stop-color="#7b7b7b" stop-opacity="0.48"/><stop offset="0.87" stop-color="#343434" stop-opacity="0.2"/><stop offset="1" stop-color="#010101" stop-opacity="0"/></radialGradient><radialGradient id="radial-gradient-8" cx="161.07" cy="51.69" r="2.06" xlink:href="#radial-gradient-7"/><radialGradient id="radial-gradient-9" cx="423.34" cy="107.09" r="2.06" xlink:href="#radial-gradient-7"/><radialGradient id="radial-gradient-10" cx="289.47" cy="6.53" r="2.06" xlink:href="#radial-gradient-7"/><radialGradient id="radial-gradient-11" cx="216.79" cy="179.74" r="2.06" xlink:href="#radial-gradient-7"/><radialGradient id="radial-gradient-12" cx="152.83" cy="213.33" r="2.06" xlink:href="#radial-gradient-7"/><radialGradient id="radial-gradient-13" cx="325.04" cy="12.25" r="2.06" gradientTransform="matrix(-1.48, 0, 0, 1.48, 693.32, 1.03)" gradientUnits="userSpaceOnUse"><stop offset="0.15" stop-color="#c571ae"/><stop offset="0.24" stop-color="#bc6ca6" stop-opacity="0.95"/><stop offset="0.38" stop-color="#a35d90" stop-opacity="0.83"/><stop offset="0.57" stop-color="#7a466c" stop-opacity="0.62"/><stop offset="0.78" stop-color="#41263a" stop-opacity="0.33"/><stop offset="1" stop-color="#010101" stop-opacity="0"/></radialGradient><radialGradient id="radial-gradient-14" cx="430.5" cy="47.79" r="2.06" xlink:href="#radial-gradient-13"/><radialGradient id="radial-gradient-15" cx="402.09" cy="78.55" r="2.06" xlink:href="#radial-gradient-13"/><radialGradient id="radial-gradient-16" cx="440.44" cy="189.59" r="2.06" xlink:href="#radial-gradient-13"/><radialGradient id="radial-gradient-17" cx="242" cy="206.29" r="2.06" xlink:href="#radial-gradient-13"/><radialGradient id="radial-gradient-18" cx="154.89" cy="127.99" r="2.06" xlink:href="#radial-gradient-13"/><radialGradient id="radial-gradient-19" cx="156.95" cy="183.86" r="2.06" xlink:href="#radial-gradient-13"/><radialGradient id="radial-gradient-20" cx="389.78" cy="187.53" r="2.06" xlink:href="#radial-gradient-7"/><radialGradient id="radial-gradient-21" cx="203.43" cy="8.59" r="2.06" xlink:href="#radial-gradient-7"/><radialGradient id="radial-gradient-22" cx="205.49" cy="73.26" r="2.06" xlink:href="#radial-gradient-13"/><radialGradient id="radial-gradient-23" cx="237.11" cy="18.39" r="2.06" xlink:href="#radial-gradient-7"/><radialGradient id="radial-gradient-24" cx="152.83" cy="14.31" r="2.06" xlink:href="#radial-gradient-7"/><radialGradient id="radial-gradient-25" cx="404.15" cy="18.39" r="2.06" xlink:href="#radial-gradient-7"/><radialGradient id="radial-gradient-26" cx="446.03" cy="21.92" r="2.06" xlink:href="#radial-gradient-7"/><radialGradient id="radial-gradient-27" cx="258.68" cy="93.77" r="2.06" gradientTransform="matrix(-0.53, 0, 0, 0.53, 496.22, 5.56)" xlink:href="#radial-gradient-7"/><radialGradient id="radial-gradient-28" cx="157.66" cy="239.54" r="2.06" gradientTransform="matrix(-0.53, 0, 0, 0.53, 496.22, 5.56)" xlink:href="#radial-gradient-7"/><radialGradient id="radial-gradient-29" cx="172.38" cy="107.21" r="2.06" gradientTransform="matrix(-0.53, 0, 0, 0.53, 496.22, 5.56)" xlink:href="#radial-gradient-7"/><radialGradient id="radial-gradient-30" cx="71.19" cy="214.85" r="2.06" gradientTransform="matrix(-0.53, 0, 0, 0.53, 496.22, 5.56)" xlink:href="#radial-gradient-7"/><radialGradient id="radial-gradient-31" cx="347.14" cy="279.5" r="2.06" gradientTransform="matrix(-0.53, 0, 0, 0.53, 496.22, 5.56)" xlink:href="#radial-gradient-7"/><radialGradient id="radial-gradient-32" cx="155.6" cy="390.94" r="2.06" gradientTransform="matrix(-0.53, 0, 0, 0.53, 496.22, 5.56)" xlink:href="#radial-gradient-7"/><radialGradient id="radial-gradient-33" cx="869.07" cy="388.88" r="2.06" gradientTransform="matrix(-0.53, 0, 0, 0.53, 496.22, 5.56)" xlink:href="#radial-gradient-7"/><radialGradient id="radial-gradient-34" cx="618.77" cy="567.42" r="2.06" gradientTransform="matrix(-0.53, 0, 0, 0.53, 496.22, 5.56)" xlink:href="#radial-gradient-13"/><radialGradient id="radial-gradient-35" cx="194.48" cy="565.36" r="2.06" gradientTransform="matrix(-0.53, 0, 0, 0.53, 496.22, 5.56)" xlink:href="#radial-gradient-7"/><radialGradient id="radial-gradient-36" cx="707.86" cy="39.34" r="2.06" gradientTransform="matrix(-0.53, 0, 0, 0.53, 496.22, 5.56)" xlink:href="#radial-gradient-13"/><radialGradient id="radial-gradient-37" cx="121.97" cy="316.21" r="2.06" gradientTransform="matrix(-0.53, 0, 0, 0.53, 496.22, 5.56)" xlink:href="#radial-gradient-13"/><radialGradient id="radial-gradient-38" cx="765.42" cy="593.08" r="2.06" gradientTransform="matrix(-0.53, 0, 0, 0.53, 496.22, 5.56)" xlink:href="#radial-gradient-13"/><radialGradient id="radial-gradient-39" cx="143.31" cy="537.51" r="2.06" gradientTransform="matrix(-0.53, 0, 0, 0.53, 496.22, 5.56)" xlink:href="#radial-gradient-13"/><radialGradient id="radial-gradient-40" cx="42.49" cy="285.53" r="2.06" gradientTransform="matrix(-0.53, 0, 0, 0.53, 496.22, 5.56)" xlink:href="#radial-gradient-13"/><radialGradient id="radial-gradient-41" cx="855.47" cy="202.19" r="2.06" gradientTransform="matrix(-0.53, 0, 0, 0.53, 496.22, 5.56)" xlink:href="#radial-gradient-13"/><radialGradient id="radial-gradient-42" cx="652.11" cy="479.1" r="2.06" gradientTransform="matrix(-0.53, 0, 0, 0.53, 496.22, 5.56)" xlink:href="#radial-gradient-13"/><radialGradient id="radial-gradient-43" cx="357.48" cy="50.78" r="2.06" gradientTransform="matrix(-0.53, 0, 0, 0.53, 496.22, 5.56)" xlink:href="#radial-gradient-13"/><radialGradient id="radial-gradient-44" cx="594.28" cy="92.08" r="2.06" gradientTransform="matrix(-0.53, 0, 0, 0.53, 496.22, 5.56)" xlink:href="#radial-gradient-7"/><radialGradient id="radial-gradient-45" cx="730.16" cy="386.82" r="2.06" gradientTransform="matrix(-0.53, 0, 0, 0.53, 496.22, 5.56)" xlink:href="#radial-gradient-7"/><radialGradient id="radial-gradient-46" cx="882.66" cy="272.96" r="2.06" gradientTransform="matrix(-0.53, 0, 0, 0.53, 496.22, 5.56)" xlink:href="#radial-gradient-7"/></defs><rect class="cls-2" x="-6.47" y="-1.96" width="512.93" height="341.96"/><g class="cls-3"><circle class="cls-4" cx="396.45" cy="58.9" r="43.87" transform="translate(204.49 410.75) rotate(-69.84)"/><circle class="cls-5" cx="119.31" cy="102.22" r="43.32" transform="translate(-11.74 15.56) rotate(-7.11)"/><circle class="cls-6" cx="-6.47" cy="-1.96" r="43.32" transform="translate(0.19 -0.82) rotate(-7.11)"/><circle class="cls-7" cx="79.02" cy="340" r="71.47" transform="translate(-269.76 325.92) rotate(-74.6)"/><circle class="cls-8" cx="506.47" cy="220.47" r="71.47" transform="translate(159.45 650.23) rotate(-74.6)"/><g class="cls-9"><circle class="cls-10" cx="143.26" cy="51.29" r="3.06"/><circle class="cls-11" cx="454.35" cy="77.72" r="3.06"/><circle class="cls-12" cx="65.26" cy="159.9" r="3.06"/><circle class="cls-13" cx="263.87" cy="10.72" r="3.06"/><circle class="cls-14" cx="371.7" cy="267.68" r="3.06"/><circle class="cls-15" cx="466.58" cy="317.52" r="3.06"/><circle class="cls-16" cx="211.1" cy="19.2" r="3.06"/><circle class="cls-17" cx="54.64" cy="71.94" r="3.06"/><circle class="cls-18" cx="96.78" cy="117.58" r="3.06"/><circle class="cls-19" cx="39.9" cy="282.31" r="3.06"/><circle class="cls-20" cx="334.29" cy="307.08" r="3.06"/><circle class="cls-21" cx="463.52" cy="190.91" r="3.06"/><circle class="cls-22" cx="460.47" cy="273.8" r="3.06"/><circle class="cls-23" cx="115.05" cy="279.25" r="3.06"/><circle class="cls-24" cx="391.51" cy="13.77" r="3.06"/><circle class="cls-25" cx="388.45" cy="109.72" r="3.06"/><circle class="cls-26" cx="341.54" cy="28.32" r="3.06"/><circle class="cls-27" cx="466.58" cy="22.26" r="3.06"/><circle class="cls-28" cx="93.72" cy="28.32" r="3.06"/><circle class="cls-29" cx="31.6" cy="33.56" r="3.06"/><circle class="cls-30" cx="359.16" cy="55.24" r="1.09"/><circle class="cls-31" cx="412.68" cy="132.48" r="1.09"/><circle class="cls-32" cx="404.89" cy="62.37" r="1.09"/><circle class="cls-33" cx="458.5" cy="119.4" r="1.09"/><circle class="cls-34" cx="312.29" cy="153.65" r="1.09"/><circle class="cls-35" cx="413.78" cy="212.7" r="1.09"/><circle class="cls-36" cx="35.75" cy="211.61" r="1.09"/><circle class="cls-37" cx="168.37" cy="306.21" r="1.09"/><circle class="cls-38" cx="393.18" cy="305.11" r="1.09"/><circle class="cls-39" cx="121.16" cy="26.41" r="1.09"/><circle class="cls-40" cx="431.59" cy="173.11" r="1.09"/><circle class="cls-41" cx="90.67" cy="319.8" r="1.09"/><circle class="cls-42" cx="420.29" cy="290.36" r="1.09"/><circle class="cls-43" cx="473.7" cy="156.85" r="1.09"/><circle class="cls-44" cx="42.95" cy="112.69" r="1.09"/><circle class="cls-45" cx="150.7" cy="259.41" r="1.09"/><circle class="cls-46" cx="306.81" cy="32.47" r="1.09"/><circle class="cls-47" cx="181.34" cy="54.35" r="1.09"/><circle class="cls-48" cx="109.35" cy="210.52" r="1.09"/><circle class="cls-49" cx="28.54" cy="150.19" r="1.09"/></g></g><path class="cls-50" d="M250,36.24A136.78,136.78,0,1,0,386.78,173,136.78,136.78,0,0,0,250,36.24Zm55.34,131v5.08h-8.75a46.27,46.27,0,0,0-5.86-21.89L298.3,146l2.54,4.4,1.31-.76-2.54-4.4,9-5.2a66.84,66.84,0,0,1,8.61,32.22H306.85v-5.08Zm-32,58,4.4-2.54,5.21,9a66.9,66.9,0,0,1-32.22,8.62v-10.4h5.08v-1.51h-5.08v-8.75a46.47,46.47,0,0,0,21.89-5.85l4.36,7.56-4.4,2.54ZM223,221.32l4.37-7.57a46.33,46.33,0,0,0,21.89,5.86v8.75h-5.08v1.51h5.08v10.4A66.9,66.9,0,0,1,217,231.65l5.21-9,4.4,2.54.76-1.31Zm3.65-100.45-4.4,2.54-5.21-9a66.9,66.9,0,0,1,32.22-8.62v10.39h-5.08v1.51h5.08v8.75a46.44,46.44,0,0,0-21.89,5.86L223,124.72l4.41-2.54ZM277,124.72l-4.36,7.57a46.48,46.48,0,0,0-21.89-5.86v-8.75h5.08v-1.51h-5.08V105.78A67,67,0,0,1,283,114.39l-5.21,9-4.4-2.54-.76,1.31Zm-5.64,54.71,15.2,14.71-20.33-5.81a.73.73,0,0,0-.74.19.75.75,0,0,0-.2.74l5.81,20.33-14.7-15.19a.75.75,0,0,0-.74-.21.77.77,0,0,0-.54.55L250,215.25l-5.13-20.51a.77.77,0,0,0-.54-.55l-.2,0a.74.74,0,0,0-.54.23l-14.71,15.19,5.82-20.33a.75.75,0,0,0-.2-.74.72.72,0,0,0-.74-.19l-20.33,5.81,15.2-14.71a.77.77,0,0,0,.2-.74.74.74,0,0,0-.55-.53L207.77,173l20.51-5.13a.75.75,0,0,0,.55-.54.78.78,0,0,0-.2-.74l-15.2-14.7,20.33,5.81a.76.76,0,0,0,.94-.94l-5.82-20.33,14.71,15.2a.75.75,0,0,0,.74.2.77.77,0,0,0,.54-.54L250,130.79l5.13,20.52a.77.77,0,0,0,.54.54.73.73,0,0,0,.74-.2l14.7-15.2-5.81,20.33a.76.76,0,0,0,.94.94l20.33-5.81-15.2,14.7a.78.78,0,0,0-.2.74.76.76,0,0,0,.54.54L292.23,173l-20.52,5.14a.74.74,0,0,0-.54.53A.77.77,0,0,0,271.37,179.43Zm.44,33.06a44.87,44.87,0,0,1-21,5.61l5.42-21.68Zm-22.66,5.61a44.87,44.87,0,0,1-21-5.61l15.54-16.07Zm-21-84.54a44.76,44.76,0,0,1,21-5.62l-5.42,21.68Zm22.66-5.62a44.87,44.87,0,0,1,21,5.61l-15.54,16.07Zm22.55,38.81,16.07-15.54a44.85,44.85,0,0,1,5.61,21Zm-6.27-10.86,6.14-21.48a45.3,45.3,0,0,1,15.34,15.34Zm-40.4-21.47,6.14,21.47-21.47-6.13A45.09,45.09,0,0,1,226.73,134.42Zm-16.19,16.79,16.06,15.54-21.67,5.43A44.85,44.85,0,0,1,210.54,151.21Zm16.06,28.08-16.06,15.54a44.84,44.84,0,0,1-5.61-21Zm6.27,10.86-6.14,21.48a45.18,45.18,0,0,1-15.33-15.34Zm40.4,21.48-6.14-21.48,21.48,6.14A45.21,45.21,0,0,1,273.27,211.63Zm16.2-16.79L273.4,179.29l21.68-5.42A44.91,44.91,0,0,1,289.47,194.84Zm9.38-50.9-2.54-4.4-1.31.76,2.55,4.4L290,149.07a46.84,46.84,0,0,0-16-16l4.37-7.58,4.4,2.54.76-1.31-4.4-2.54,5.2-9a67.63,67.63,0,0,1,23.59,23.59Zm-15.12-30.85a68.26,68.26,0,0,0-33-8.82V37.76A134.61,134.61,0,0,1,317,55.48Zm-34.49-8.82a68.26,68.26,0,0,0-33,8.82L183,55.48a134.61,134.61,0,0,1,66.23-17.72Zm-28.32,19.9-4.4,2.54.76,1.31,4.39-2.54,4.38,7.58a46.73,46.73,0,0,0-16,16l-7.58-4.37,2.53-4.4-1.3-.76-2.54,4.4-9-5.21a67.82,67.82,0,0,1,23.58-23.58Zm-20.53,21.08-2.54,4.4,1.31.76L201.7,146l7.57,4.38a46.26,46.26,0,0,0-5.85,21.89h-8.76v-5.08h-1.51v5.08H182.76A66.9,66.9,0,0,1,191.37,140Zm-19.15,27h-66.5A134.65,134.65,0,0,1,132.46,106l57.6,33.26A68.46,68.46,0,0,0,181.24,172.27Zm0,1.51a68.52,68.52,0,0,0,8.82,33L132.46,240a134.61,134.61,0,0,1-17.72-66.23Zm1.52,0h10.39v5.08h1.51v-5.08h8.76a46.29,46.29,0,0,0,5.85,21.89L201.7,200l-2.54-4.4-1.31.75,2.54,4.41-9,5.2A66.87,66.87,0,0,1,182.76,173.78Zm18.39,28.32,2.54,4.4,1.3-.75-2.53-4.4L210,197a46.73,46.73,0,0,0,16,16l-4.38,7.59L217.28,218l-.76,1.31,4.4,2.54-5.21,9a67.65,67.65,0,0,1-23.58-23.58ZM216.27,233a68.49,68.49,0,0,0,33,8.82v66.5A134.51,134.51,0,0,1,183,290.56Zm34.49,8.82a68.49,68.49,0,0,0,33-8.82L317,290.56a134.51,134.51,0,0,1-66.23,17.72Zm28.32-19.9,4.4-2.54-.76-1.31-4.4,2.54L274,213a46.87,46.87,0,0,0,16-16l7.58,4.38-2.55,4.4,1.31.75,2.54-4.4,9,5.21a67.51,67.51,0,0,1-23.59,23.58Zm20.53-21.09,2.54-4.4-1.31-.75L298.3,200l-7.57-4.37a46.3,46.3,0,0,0,5.86-21.89h8.75v5.08h1.51v-5.08h10.39A66.87,66.87,0,0,1,308.63,206Zm19.15-27h66.5A134.64,134.64,0,0,1,367.54,240l-57.6-33.26A68.46,68.46,0,0,0,318.76,173.78Zm0-1.51a68.49,68.49,0,0,0-8.82-33L367.54,106a134.68,134.68,0,0,1,17.72,66.24Zm48-67.54L309.18,138A69.23,69.23,0,0,0,285,113.84l33.26-57.6a135.72,135.72,0,0,1,48.48,48.49ZM154.35,77.37A135.92,135.92,0,0,1,181.7,56.24L215,113.84A69.23,69.23,0,0,0,190.82,138l-57.6-33.25A136,136,0,0,1,154.35,77.37Zm-21.13,164,57.6-33.25A69.37,69.37,0,0,0,215,232.2L181.7,289.8a135.79,135.79,0,0,1-48.48-48.48Zm212.43,27.35A135.56,135.56,0,0,1,318.3,289.8L285,232.2a69.23,69.23,0,0,0,24.14-24.14l57.6,33.26A135.92,135.92,0,0,1,345.65,268.67Z"/><path class="cls-50" d="M271.14,259.56a.39.39,0,0,1,.18,0c3.51,1.28-1.73,9.6-.32,13.62,1.56,4.4,3.63,13.15,5.55,13.15a.63.63,0,0,0,.19,0c1.41-.46-.64-8.64-2.5-13.93-.31-.89.12-1.56.73-1.56a1.46,1.46,0,0,1,1.16.85,28.85,28.85,0,0,1,1.67,4.58c1.21,3.28,2.53,9.13,4.23,9.13h.07c1.73-.15,3.72-5.34,2.39-9.61-.7-2.27-2.05-4.63-2.74-6.92-.34-1.14.15-2.24.8-2.24.32,0,.69.29,1,1,2,4.45,3.06,9.32,5.25,13.69.52,1,.94,1.44,1.31,1.44,1.23,0,1.83-4.51,3.32-4.51a.93.93,0,0,1,.41.11c2.31,1.16-.33,5.14-2.22,6.16a2.64,2.64,0,0,1-1.24.35c-2,0-3.2-3-3.94-4.51.12,2.82-1.41,7.41-4.07,7.41a4.3,4.3,0,0,1-3-1.78c-1,1.56-1.89,2.67-2.87,2.67-.77,0-1.58-.69-2.47-2.38-1.9-3.63-3.05-7.73-4.52-11.55a27.53,27.53,0,0,1-3.05,5.56,1.6,1.6,0,0,1-1.27.63c-1.83,0-4-3-4.49-4.13-1.94-4.92.35-8.57,4-8.57a7.63,7.63,0,0,1,4.1,1.37c1-3.19.95-10,2.39-10M264.48,279a1.42,1.42,0,0,0,.75-.23c1.3-.76,2.59-4.85,2.89-6.26s-1.26-2.42-2.91-2.42c-2,0-4.14,1.49-3.1,5.5.44,1.71,1.22,3.41,2.37,3.41m6.66-20.11c-1.51,0-1.81,2.35-2.26,5.89-.17,1.31-.34,2.66-.58,3.75a7.86,7.86,0,0,0-3.65-1,5.19,5.19,0,0,0-4.38,2.25c-1.27,1.87-1.37,4.53-.28,7.31.43,1.1,2.81,4.58,5.16,4.58a2.34,2.34,0,0,0,1.82-.89,18.67,18.67,0,0,0,2.42-4.17l.71,2a59.82,59.82,0,0,0,3.25,8c.63,1.19,1.63,2.76,3.11,2.76,1.18,0,2.16-1,3-2.24a4.4,4.4,0,0,0,2.93,1.36,3.4,3.4,0,0,0,2.47-1.16,9.24,9.24,0,0,0,2.07-4.4c.8,1.38,1.88,2.66,3.47,2.66a3.32,3.32,0,0,0,1.58-.44c1.64-.88,3.52-3.4,3.5-5.34a2.27,2.27,0,0,0-1.29-2.09,1.66,1.66,0,0,0-.74-.19c-1.25,0-1.88,1.46-2.49,2.86a7.66,7.66,0,0,1-.84,1.61,3.26,3.26,0,0,1-.65-1,58.7,58.7,0,0,1-2.92-7.45c-.7-2.06-1.43-4.19-2.33-6.21-.51-1.17-1.18-1.41-1.65-1.41a1.42,1.42,0,0,0-1.15.62,2.91,2.91,0,0,0-.33,2.54,30.69,30.69,0,0,0,1.43,3.63,31.69,31.69,0,0,1,1.31,3.29,10.32,10.32,0,0,1-.94,7.92c-.36.54-.68.75-.84.77h0s-.41-.05-1.14-1.66c-.53-1.2-1-2.78-1.52-4.31-.31-1-.6-1.89-.89-2.69-.15-.42-.3-.9-.46-1.41a15.94,15.94,0,0,0-1.27-3.29,2.18,2.18,0,0,0-1.78-1.2,1.5,1.5,0,0,0-1.23.65,2,2,0,0,0-.18,1.87c2.1,6,3.24,11.73,2.88,13-1-.62-2.71-6.12-3.54-8.81-.43-1.41-.84-2.74-1.22-3.82-.56-1.58.12-4.19.72-6.5.85-3.25,1.73-6.62-.83-7.56a1.31,1.31,0,0,0-.43-.08Zm-6.66,19.39c-.46,0-1.16-.89-1.68-2.87-.41-1.6-.31-2.87.31-3.67a2.61,2.61,0,0,1,2.1-.93,2.69,2.69,0,0,1,2,.78.85.85,0,0,1,.2.77c-.41,1.93-1.69,5.29-2.55,5.8a.86.86,0,0,1-.39.12Z"/><path class="cls-50" d="M176,227.59c.66,0,1.32,0,1.94.06,1,0,1.78,1,1.05,1.71-.53.53-2.52.63-3.21.79,2.11,2.72,5,5.85,2,8.79s-10.57,9-9.84,10.27a3.1,3.1,0,0,0,2.89,1.57c2.63,0,6-2.1,7.39-3.84s3-3.74,4.58-5.51a2.39,2.39,0,0,1,1.71-.78c.83,0,1.38.57.55,1.58-3.23,3.94-7.42,7.2-10.35,11.37-.8,1.14.42,1.4,1.78,1.4a20.69,20.69,0,0,0,2.58-.21c2.59-.32,3.39-2.14,5.16-4,1.54-1.65,3.09-3.41,4.6-5.09A1.65,1.65,0,0,1,190,245c.85,0,1.25,1.21.36,2.19-3.36,3.74-11.65,12.17-10.88,12.93a2.37,2.37,0,0,0,1.61.43,12.88,12.88,0,0,0,3.32-.55,3,3,0,0,1,.77-.09c1.36,0,3,.69,1.08,1.61a11.2,11.2,0,0,1-4.63,1c-3.27,0-5.71-1.68-2.59-5.65l-1.33,0c-3.45,0-5.41-.48-4.09-4.64h-.31c-.68,0-1.54,0-2.43,0-1.89,0-3.92-.25-4.51-1.86-.87-2.37,1.7-5.3,3.45-6.49,4.56-3.12,10.58-10,3.89-12.92a13.29,13.29,0,0,1-.05,4.62c-.19.81-.48,1.1-.79,1.1-.64,0-1.36-1.25-1.41-1.79-.06-.8.15-5.33,1.24-6.39a4.58,4.58,0,0,1,3.36-1m0-.72a5.3,5.3,0,0,0-3.86,1.24c-1.44,1.4-1.49,6.46-1.45,7,.06.73.94,2.45,2.12,2.45.5,0,1.17-.29,1.49-1.66a11.64,11.64,0,0,0,.2-3.5,3,3,0,0,1,1.4,2.19c.26,2.71-3.1,6.5-6.55,8.86-2,1.35-4.74,4.54-3.72,7.32.87,2.34,4,2.34,5.19,2.34.49,0,1,0,1.41,0h.39a3.86,3.86,0,0,0,.33,3.27c.91,1.24,2.79,1.35,4.65,1.36a3.79,3.79,0,0,0-.51,3.64c.61,1.26,2.24,2,4.48,2a11.81,11.81,0,0,0,4.94-1.11c1-.47,1.42-1,1.27-1.7-.23-1-1.78-1.28-2.66-1.28a3.58,3.58,0,0,0-1,.12,12,12,0,0,1-3.12.52,3,3,0,0,1-.83-.09c.78-1.48,5.11-6.11,7.77-9,1.08-1.17,2.11-2.26,2.87-3.11a2.32,2.32,0,0,0,.52-2.45,1.54,1.54,0,0,0-1.42-.94,2.33,2.33,0,0,0-1.7.9l-.74.84c-1.26,1.41-2.56,2.87-3.84,4.24-.43.45-.79.89-1.14,1.31-1.09,1.33-1.88,2.28-3.58,2.49l-.12,0a18,18,0,0,1-2.38.2,3.78,3.78,0,0,1-1.27-.15.42.42,0,0,1,.08-.12,50,50,0,0,1,5.74-6.44c1.55-1.56,3.16-3.17,4.58-4.89a1.76,1.76,0,0,0,.45-1.92,1.63,1.63,0,0,0-1.56-.84,3.08,3.08,0,0,0-2.24,1c-1.23,1.35-2.38,2.79-3.5,4.18-.36.46-.73.92-1.1,1.37-1.37,1.68-4.59,3.57-6.84,3.57a2.39,2.39,0,0,1-2.21-1.11c.28-1.07,4.42-4.76,6.66-6.76,1.14-1,2.22-2,3-2.73,3.13-3,.83-6.29-1.13-8.78a4.4,4.4,0,0,0,2.4-.81,1.58,1.58,0,0,0,.39-1.73,2.12,2.12,0,0,0-1.94-1.21l-.78,0-1.17,0Z"/><path class="cls-50" d="M325.83,234c4.81,0,9.41,6.44,1.65,11,4.43,1.59,7.77,3.71,6.51,9a8.82,8.82,0,0,1-8.48,6.59,8.05,8.05,0,0,1-3-.57c-6-2.44-5.73-11.08-11.21-13.56a5.55,5.55,0,0,0-2.31-.53c-3.77,0-5.85,4.43-1.47,7.14.32.2,1.05.52.63,1.11a.9.9,0,0,1-.79.38c-1.7,0-4.86-3-4.48-5.18a6.44,6.44,0,0,1,6.35-5.33,6.37,6.37,0,0,1,4.22,1.62c3.77,3.28,4,9.51,8.39,12.29a6.46,6.46,0,0,0,3.46,1,7.18,7.18,0,0,0,7-6c.9-5.6-3.58-5.28-7.09-7.39-3.1-1.87-6.3-5.33-3.85-9a5.31,5.31,0,0,1,4.5-2.55m.38,8.58c2.76,0,5.13-2.89,2.47-5.55a3.57,3.57,0,0,0-2.59-1.1c-2.77,0-5.32,3.06-2.67,5.52a4.08,4.08,0,0,0,2.79,1.13m-.38-9.3a6.05,6.05,0,0,0-5.1,2.87,5.22,5.22,0,0,0-.86,4.2c.66,3,3.67,5,4.94,5.8a19,19,0,0,0,2.92,1.35c2.65,1.05,4.4,1.73,3.83,5.32a6.43,6.43,0,0,1-6.25,5.4,5.78,5.78,0,0,1-3.08-.9c-2.21-1.39-3.29-3.74-4.43-6.23-1-2.15-2-4.39-3.86-6a7.05,7.05,0,0,0-4.7-1.8,7.16,7.16,0,0,0-7.05,5.92,4.83,4.83,0,0,0,1.34,3.67c1,1.18,2.55,2.36,3.84,2.36a1.63,1.63,0,0,0,1.38-.68,1.26,1.26,0,0,0,.23-1,1.78,1.78,0,0,0-1-1.08l-.1-.06c-1.64-1-2.4-2.41-2-3.72a3.11,3.11,0,0,1,3.12-2.09,4.92,4.92,0,0,1,2,.46c2.41,1.1,3.62,3.57,4.91,6.19,1.45,3,2.95,6,6.32,7.38a8.64,8.64,0,0,0,3.26.63,9.59,9.59,0,0,0,9.18-7.15c1.27-5.34-1.92-7.79-5.64-9.33,3.72-2.71,3.45-5.63,3.13-6.84a6.68,6.68,0,0,0-6.35-4.68Zm.38,8.58a3.33,3.33,0,0,1-2.3-.93,2.16,2.16,0,0,1-.75-2.43,3.23,3.23,0,0,1,2.93-1.85,2.92,2.92,0,0,1,2.09.89,2.4,2.4,0,0,1,.8,2.66,3,3,0,0,1-2.77,1.66Z"/><path class="cls-50" d="M265.64,59.28a6.46,6.46,0,0,1,4.13,2c5.79,5.22,1.25,14.25,2.82,20.6,1.9-4.42,6.44-17.69,12.69-17.69a4.59,4.59,0,0,1,.73.06c12.18,2,4.11,12.57-.57,12.57a2.31,2.31,0,0,1-1.6-.58c-.51-.45,4.86,0,5.32-4.64.23-2.37-1.16-4.91-3.33-4.91a3.39,3.39,0,0,0-1.65.46c-3.54,1.91-5.4,6-7.2,9.41-1.18,2.27-3,9.9-5.75,9.9a1.61,1.61,0,0,1-.51-.09c-1.36-.48.8-12.81,0-19.17-.39-3-2.08-5.35-5.23-5.87a2.6,2.6,0,0,0-.46,0c-3.29,0-.36,7.11-1.05,7.53-3.8-.11-2.95-9.56,1.69-9.56m0-.72c-3.06,0-4.76,3.3-4.8,6.41,0,2.69,1.21,4.53,3.09,4.58h.21l.18-.11c.65-.4.5-1.2.19-2.81-.25-1.38-.69-3.68-.09-4.4A.67.67,0,0,1,265,62l.34,0c3.52.58,4.41,3.54,4.64,5.25a67.08,67.08,0,0,1-.17,11.33c-.4,6-.48,8,.68,8.43a2.35,2.35,0,0,0,.74.13c2.5,0,4.08-4.27,5.35-7.71a27.38,27.38,0,0,1,1-2.58l.45-.86c1.67-3.25,3.4-6.6,6.45-8.25a2.69,2.69,0,0,1,1.31-.37,2.19,2.19,0,0,1,1.61.77,4.49,4.49,0,0,1,1,3.35c-.28,2.9-2.79,3.44-4.14,3.73-.61.13-1.05.23-1.19.73a.78.78,0,0,0,.25.79,3,3,0,0,0,2.08.76c3,0,7.36-3.83,7.68-7.75.16-1.88-.55-5.19-7-6.24a4.76,4.76,0,0,0-.84-.07c-5.78,0-10,9.8-12.31,15.6a41.15,41.15,0,0,1,.27-5c.46-4.84.92-9.85-3-13.37a7.13,7.13,0,0,0-4.61-2.21Z"/><path class="cls-50" d="M209.34,268.65a19.18,19.18,0,0,1,3.81.85c1.89.41,7.76.91,5.73,4.47-1.66,2.94-4,5.9-2.79,9.46.61,1.82,3,2.54,5.08,2.54a7.25,7.25,0,0,0,2.58-.43c4.18-1.68,3.81-5.57,3-9.18-.51-2.34.82-3.15,2.7-3.15,3.4,0,8.57,2.66,7.81,3.79a1.07,1.07,0,0,1-.94.41c-1.66,0-4.74-1.89-6.73-1.89a1.8,1.8,0,0,0-1.2.38c.86,3.53,2,6.7-1,9.57a9.07,9.07,0,0,1-6.29,2.38,8.89,8.89,0,0,1-3.17-.56c-6.74-2.56-3.07-10.35-.54-14.63-1.49-.33-9-1.18-9.31-2.53-.28-1.13.32-1.48,1.2-1.48m0-.72a2,2,0,0,0-1.66.66,1.94,1.94,0,0,0-.24,1.71c.32,1.3,2.91,1.93,8.23,2.79l.65.1c-2.61,4.66-3.45,8.36-2.52,11a6.22,6.22,0,0,0,3.94,3.74,9.61,9.61,0,0,0,3.42.61A9.74,9.74,0,0,0,228,286c3-2.91,2.17-6.19,1.37-9.36l-.09-.36a2.05,2.05,0,0,1,.37,0,11.23,11.23,0,0,1,3.39,1,10.55,10.55,0,0,0,3.34.93,1.72,1.72,0,0,0,1.53-.73,1.23,1.23,0,0,0,0-1.31c-.88-1.65-5.44-3.6-8.43-3.6a3.53,3.53,0,0,0-2.94,1.12,3.33,3.33,0,0,0-.46,2.91c.92,4.15.81,7-2.57,8.35a6.55,6.55,0,0,1-2.32.38c-1.71,0-3.89-.54-4.39-2.05-.92-2.75.5-5.12,2-7.63l.73-1.25a2.86,2.86,0,0,0,.29-2.72c-.85-1.79-3.76-2.31-5.69-2.65l-.81-.15c-.2-.05-.5-.13-.84-.24a12.62,12.62,0,0,0-3.12-.63Zm1.14-5.67a6.25,6.25,0,0,1,1.47.29c.57.12,10.48,3,14.83,4.37a61.35,61.35,0,0,0,10.95,2.41c.41.05,1.7.45,1.62,1.38-.06.7-.65.8-1.16.8l-.46,0a19.38,19.38,0,0,1-4.5-.55c-3.32-.91-6.59-2-9.89-3-2.9-.87-5.8-1.73-8.72-2.51-1.12-.3-2.17-.56-3.27-.91s-2.19-.69-1.83-1.69a.92.92,0,0,1,1-.54m0-.72h0a1.57,1.57,0,0,0-1.63,1,1.54,1.54,0,0,0,0,1.24,3.52,3.52,0,0,0,2.24,1.38c.86.27,1.67.48,2.53.71l.78.2c3.17.86,6.31,1.79,8.69,2.51,1.25.37,2.51.77,3.73,1.16,2,.64,4.1,1.3,6.18,1.87a20.11,20.11,0,0,0,4.67.58h.48c1.51,0,1.82-.91,1.87-1.46.13-1.34-1.3-2-2.23-2.15A60.24,60.24,0,0,1,227,266.23c-4.1-1.29-14.24-4.25-14.9-4.38l-.19-.05a5.15,5.15,0,0,0-1.42-.26Z"/><path class="cls-50" d="M319.73,83.18a2.15,2.15,0,0,1,1.67,1.14c1.85,2.9,1.3,4.66,1,7.33-.5,4.78.28,8.76,4.77,8.76a9.88,9.88,0,0,0,2.16-.26,16,16,0,0,1,3.27-.44,5.89,5.89,0,0,1,3.34.92c.8.52,3.83,3.57,1.67,4.3-2.1-2.66-4.16-3.46-6.56-3.46a30.81,30.81,0,0,0-5.64.81c-.48.1,1.23,10.72-7.6,10.72a11.81,11.81,0,0,1-1.42-.08c-4.92-.56-8.36-7.47-6.22-11.94a8.56,8.56,0,0,1,7.73-5,7.07,7.07,0,0,1,2,.28h0c.1,0,1-4.82,1.32-7s-.7-3.12-1.9-4.78c-.58-.82-.23-1.35.39-1.35m-2.27,27.74c4.3,0,7.85-6.21,4.33-10.65a5.87,5.87,0,0,0-4.63-2.46,6.13,6.13,0,0,0-4.84,9.59c1.56,2.52,3.41,3.52,5.14,3.52m2.27-28.45h0a1.36,1.36,0,0,0-1.26.7,1.64,1.64,0,0,0,.29,1.78c.19.27.38.51.56.75.9,1.19,1.45,1.91,1.21,3.51-.27,1.78-.85,4.91-1.13,6.24a7.93,7.93,0,0,0-1.49-.14,9.27,9.27,0,0,0-8.38,5.36,9.37,9.37,0,0,0,.64,8.39,8.42,8.42,0,0,0,6.15,4.57,13.1,13.1,0,0,0,1.5.09c7.87,0,8.11-7.82,8.2-10.39,0-.15,0-.3,0-.44h0a26.83,26.83,0,0,1,5-.7c2.47,0,4.21.92,6,3.18l.32.4.48-.16a1.67,1.67,0,0,0,1.23-1.39c.2-1.65-2.14-3.8-2.75-4.2a6.67,6.67,0,0,0-3.73-1,16.1,16.1,0,0,0-3.42.46,9.52,9.52,0,0,1-2,.24,3.7,3.7,0,0,1-2.94-1.11c-1.09-1.21-1.46-3.51-1.12-6.86,0-.34.08-.66.12-1,.28-2.18.51-4.06-1.23-6.8a2.88,2.88,0,0,0-2.28-1.47Zm-2.27,27.73c-1.67,0-3.24-1.1-4.53-3.18a5.51,5.51,0,0,1-.28-5.71,5.3,5.3,0,0,1,4.51-2.78,5.17,5.17,0,0,1,4.07,2.19,5.83,5.83,0,0,1,.64,6.31,5.17,5.17,0,0,1-4.41,3.17Z"/><path class="cls-50" d="M357.7,131c.41,0,.7.27.58,1-.49,3.33-1.28,6-.52,9.39,2.27,10,7.53,12.09,7.15,12.8a1.44,1.44,0,0,1-1.26.9c-1.34,0-3-2-3.88-3.19a3.17,3.17,0,0,0-2.66-1.43,23.15,23.15,0,0,0-3.88.8c-2.93.58-5.84,1.19-8.69,2.05-1.18.35-.83,5.65-.92,6.63s-.26,3.24-1.27,3.24a1.49,1.49,0,0,1-1-.49c-.84-.79.71-6.5.56-7.9-.64-5.78-3-10.74-6-15.59-.2-.31-.53-.84,0-1.12a2.6,2.6,0,0,1,1.11-.36c.77,0,1.08.89,2.11,2.66,1.21,2.07,1.68,2.82,2.65,2.82a12.49,12.49,0,0,0,3.18-.92l7.94-2.76c4.11-1.43,1-4.84,3.3-7.73a2.26,2.26,0,0,1,1.5-.83M344.31,151.1h.09c3.35-1,9.2-2.69,12.47-3.86l-1.48-5.71L342,146.07c.38,2.09,1.49,5,2.33,5m13.39-20.86h0a3,3,0,0,0-2.06,1.1,6.19,6.19,0,0,0-1.13,4.26c0,1.62,0,2.59-1.85,3.24l-4,1.38-4,1.38-.73.26a8.43,8.43,0,0,1-2.21.62c-.52,0-.88-.49-2-2.46-.2-.33-.36-.63-.51-.9-.71-1.27-1.18-2.11-2.23-2.11a3.29,3.29,0,0,0-1.44.43,1.21,1.21,0,0,0-.62.75,1.86,1.86,0,0,0,.35,1.39c2.56,4.13,5.26,9.17,5.94,15.29a17.88,17.88,0,0,1-.35,2.82c-.54,3.25-.71,4.86,0,5.53a2.15,2.15,0,0,0,1.44.68c1.66,0,1.88-2.61,2-3.87,0-.27,0-.67,0-1.22,0-2.83.14-4.45.45-4.83,2.92-.88,5.95-1.5,8.57-2,.54-.11,1-.24,1.53-.37a9.4,9.4,0,0,1,2.21-.41,2.43,2.43,0,0,1,2.09,1.15c1.24,1.61,2.86,3.46,4.45,3.46a2.12,2.12,0,0,0,1.89-1.26c.36-.68-.19-1.21-.9-1.89-1.48-1.41-4.57-4.36-6.18-11.42a17.49,17.49,0,0,1,.22-7.24c.11-.61.22-1.24.31-1.89a1.67,1.67,0,0,0-.3-1.42,1.26,1.26,0,0,0-1-.43Zm-14.89,16.31,12.08-4.1.19.74.93,3.58c-3.05,1-7.76,2.44-10.95,3.37l-.7.21a10.14,10.14,0,0,1-1.55-3.8Z"/><path class="cls-50" d="M355,187.3c4.58,0,7.61,8.16,7.42,12.09A16.41,16.41,0,0,1,356.22,211a6.69,6.69,0,0,1-3.36,1.19c-.82,0-1.14-.42,0-1.65.86-.93,2.22-1.15,3.15-2.09a12.88,12.88,0,0,0,2.94-5.29c2.1-6.85-.64-9.82-.91-10.24-.6,3.52-2.61,4.9-4.58,4.9-3.45,0-6.81-4.2-2.43-8.56a5.77,5.77,0,0,1,4-2m-1.67,8.11c2.3,0,4.57-3.55,1.59-5.14a2.46,2.46,0,0,0-1.14-.3c-2.52,0-3.77,4.65-1,5.37a1.88,1.88,0,0,0,.53.07m1.67-8.83h0a6.48,6.48,0,0,0-4.49,2.21c-2.09,2.08-2.8,4.48-1.93,6.57a5.36,5.36,0,0,0,4.87,3.22c2.24,0,4-1.38,4.84-3.78,1.2,2.65.68,5.83,0,8.19a11.78,11.78,0,0,1-2.77,5,5,5,0,0,1-1.38.91,5.7,5.7,0,0,0-1.77,1.21c-.56.6-1.16,1.39-.83,2.14a1.32,1.32,0,0,0,1.37.71,7.35,7.35,0,0,0,3.82-1.36c2.28-1.9,6.15-6,6.45-12.17a17.1,17.1,0,0,0-4-10.83,5.64,5.64,0,0,0-4.1-2Zm-1.67,8.11a1.47,1.47,0,0,1-.36,0,1.54,1.54,0,0,1-1-1.84c.13-1,.87-2.13,1.83-2.13a1.72,1.72,0,0,1,.8.23,1.58,1.58,0,0,1,1,1.88,2.59,2.59,0,0,1-2.24,1.9Zm-6.94-7.87c.81,0,1.14.43,0,1.65-.86.93-2.21,1.16-3.14,2.1a12.81,12.81,0,0,0-2.94,5.29c-2.1,6.85.64,9.81.91,10.23.6-3.52,2.6-4.9,4.58-4.9,3.45,0,6.81,4.2,2.43,8.57a5.76,5.76,0,0,1-4,2c-4.58,0-7.61-8.16-7.41-12.08A16.38,16.38,0,0,1,343,188a6.79,6.79,0,0,1,3.36-1.19m-.91,22.27c2.52,0,3.77-4.66,1-5.38a2.33,2.33,0,0,0-.53-.06c-2.3,0-4.58,3.55-1.59,5.13a2.45,2.45,0,0,0,1.14.31m.91-23a7.31,7.31,0,0,0-3.82,1.35c-2.28,1.91-6.15,6-6.45,12.17a17.11,17.11,0,0,0,4,10.84,5.62,5.62,0,0,0,4.09,2,6.47,6.47,0,0,0,4.49-2.2c2.1-2.09,2.81-4.49,1.94-6.58a5.37,5.37,0,0,0-4.87-3.22c-2.24,0-4,1.39-4.84,3.79-1.2-2.66-.69-5.84,0-8.19a11.82,11.82,0,0,1,2.77-5,5.23,5.23,0,0,1,1.38-.9,6.07,6.07,0,0,0,1.77-1.21c.56-.61,1.16-1.4.83-2.15a1.33,1.33,0,0,0-1.37-.7Zm-.91,22.26a1.7,1.7,0,0,1-.8-.22,1.6,1.6,0,0,1-1-1.88,2.61,2.61,0,0,1,2.25-1.91,1.34,1.34,0,0,1,.35,0,1.54,1.54,0,0,1,1,1.84c-.13,1-.87,2.12-1.83,2.12Z"/><path class="cls-50" d="M147.41,189.7a1.42,1.42,0,0,1,.3,0c2.22.43-.36,2.28-.34,2.28h0a78.76,78.76,0,0,1-7.88,3.87c.31,1.22,9.26,2.71,10.75,3a17.79,17.79,0,0,0,3.14.79c.72,0,1.29-.35,1.58-1.47.47-1.8.89-5.28,2.64-5.28h.14c.92.09-.89,5.41-1.39,7.18,1.36.3,9.35,1.07,9.4,2.8,0,.76-.73,1-1.82,1-2.56,0-7-1.47-7.8-1.64-.21,1.19-.58,6.7-1.8,6.7h-.07c-2.12-.39-.25-5.58-.09-6.19.47-1.81-13.86-4.39-16.08-4.85.36,1,3.89,9.7,2.26,9.7a1,1,0,0,1-.44-.15c-2.22-1.23-5.59-9.2-4.43-12,.76-1.8,9.42-5.88,11.93-5.88m0-.72c-2.54,0-11.64,4.06-12.59,6.32-1.3,3.08,2.12,11.41,4.74,12.87a1.65,1.65,0,0,0,.79.24,1.07,1.07,0,0,0,.89-.47c.54-.79.39-2.59-2-9,11.07,2.18,13.7,3.34,14.21,3.87l0,.14c-.65,2.07-1.28,4.62-.47,6a1.72,1.72,0,0,0,1.21.83l.2,0c1.38,0,1.86-2,2.37-6.22l0-.3.23.07a31,31,0,0,0,7,1.39,2.87,2.87,0,0,0,2.12-.64,1.53,1.53,0,0,0,.42-1.13c-.05-1.68-3.07-2.44-8.62-3.26l-.58-.09.12-.41c1.18-3.88,1.62-5.73,1.11-6.5a.93.93,0,0,0-.68-.42h-.22c-2,0-2.65,2.79-3.1,4.82-.08.36-.15.71-.23,1-.24.93-.62.93-.89.93a6.4,6.4,0,0,1-1.68-.39c-.42-.14-.85-.27-1.29-.38l-1.47-.29a59.5,59.5,0,0,1-8-1.93l1.6-.73a41.6,41.6,0,0,0,5.23-2.65l-.35-.58.43.52c1.17-.91,1.65-1.7,1.48-2.43-.1-.4-.43-.91-1.46-1.1a1.91,1.91,0,0,0-.43,0Z"/><path class="cls-50" d="M159.41,135.7a4.9,4.9,0,0,1,2.21.64c4.69,2.44,3,8.25-1.71,9.26,1.17,2,5.48,9.87,3.83,10.76a.76.76,0,0,1-.32.08c-1.54,0-3.06-5.86-4.52-8.52-1.11-2-10.75-4.69-16-4.69-2.62,0-4.11.68-2.82,2.48a9.16,9.16,0,0,0,6.59,4.08c1.29.11,7.05.1,7.72,1.38s-.19,1.53-1.35,1.53a20.36,20.36,0,0,1-3.68-.56c-2.32-.38-7.47-1.54-9.61-1.54-.5,0-.83.06-.93.21-.55.79,1.49,2.44,2.44,3.79.63.9.27,1.94-.48,1.94a1.45,1.45,0,0,1-1-.52c-2.77-2.82-5.7-7.14.15-7.31-.89-1.35-3.55-4.05-2.38-5.87a3.65,3.65,0,0,1,3.28-2,8.34,8.34,0,0,1,2.23.38A94.19,94.19,0,0,0,157,144.13c-.74-2.51-1-8.43,2.37-8.43m-.4,7.54,0,0s0,.16.38.63c2.38-.5,4.9-3.36,2.1-5.35a3.19,3.19,0,0,0-1.75-.73c-1.82,0-1.61,3.53-.7,5.47m.4-8.26a3,3,0,0,0-2.45,1.23c-1.25,1.68-1.27,4.86-.86,7.07a93.81,93.81,0,0,1-12.78-2.71,8.78,8.78,0,0,0-2.43-.41,4.39,4.39,0,0,0-3.89,2.29c-1.18,1.85.48,4.12,1.66,5.66a3.08,3.08,0,0,0-2.6,1.71c-.8,2,1.34,4.74,3.27,6.7a2.12,2.12,0,0,0,1.5.74,1.47,1.47,0,0,0,1.32-.83,2.17,2.17,0,0,0-.25-2.24,17.22,17.22,0,0,0-1.14-1.37,9.38,9.38,0,0,1-1.19-1.5h.23a49.72,49.72,0,0,1,6.86,1.05c1,.19,2,.38,2.63.49l.33.07a17.7,17.7,0,0,0,3.47.5,2.26,2.26,0,0,0,2.1-.82,1.75,1.75,0,0,0-.11-1.77c-.64-1.19-3.18-1.53-7.36-1.71l-.94,0a8.46,8.46,0,0,1-6.06-3.79c-.34-.47-.37-.73-.33-.81s.3-.53,2.56-.53c5.46,0,14.45,2.75,15.32,4.32a34.38,34.38,0,0,1,1.47,3.4c1.35,3.4,2.25,5.49,3.68,5.49a1.41,1.41,0,0,0,.66-.17,1.35,1.35,0,0,0,.67-.87c.56-2-2.16-7.22-3.76-10.09a6.14,6.14,0,0,0,4.08-4.84,5.32,5.32,0,0,0-3.12-5.48,5.57,5.57,0,0,0-2.54-.73Zm.29,8,0-.08c-.66-1.4-.83-3.45-.34-4.22a.41.41,0,0,1,.39-.23,2.54,2.54,0,0,1,1.33.6,1.71,1.71,0,0,1,.9,1.74A3.53,3.53,0,0,1,159.7,143Z"/><path class="cls-50" d="M178.28,82.44c2.53,0,7,3,7.94,3.69s.5,1.75-.3,1.75a1.33,1.33,0,0,1-.79-.31c-1.69-1.26-4.79-3.35-6.12-3.35a.71.71,0,0,0-.41.11c-.94.64.5,5.43.52,8.1,0,1.31-1,1.7-2.3,1.7-2,0-4.88-1-5.93-1,.24,1.88.48,3.77.7,5.66a11.56,11.56,0,0,1,.42,2.6c-.15,1.9-.92,2.57-1.94,2.57-1.78,0-4.31-2.08-5.48-3.19a2.38,2.38,0,0,0-.54.84c-1.43,2.68.66,5.15-.42,7.83-.19.46-.48.65-.78.65a1.26,1.26,0,0,1-1.07-1.12,16.92,16.92,0,0,1-.05-7c.49-2,1.3-2.63,2.25-2.63,1.35,0,3,1.36,4.33,2.33a1.6,1.6,0,0,0,.87.37c1.7,0-.1-6.55-.19-7.26-.31-2.59.61-3.27,2-3.27s3.28.67,4.9.83h.16c2.74,0-.92-7.55.94-9.44a1.72,1.72,0,0,1,1.28-.44m0-.72v0a2.42,2.42,0,0,0-1.79.66c-1.13,1.15-.76,3.45-.4,5.67.21,1.31.5,3.1.16,3.51a.27.27,0,0,1-.19,0H176a17,17,0,0,1-2.19-.4,13.48,13.48,0,0,0-2.77-.43,2.66,2.66,0,0,0-2.12.81,4,4,0,0,0-.61,3.26c0,.15.07.39.18.88.88,4,.81,5.19.64,5.56a1.73,1.73,0,0,1-.37-.21l-.58-.43c-1.3-1-2.77-2-4.17-2h0c-1.43,0-2.42,1.06-2.94,3.16a17.79,17.79,0,0,0,0,7.36,2,2,0,0,0,1.78,1.71,1.56,1.56,0,0,0,1.45-1.1,7.3,7.3,0,0,0,.15-4.1,5.42,5.42,0,0,1,.23-3.67l0-.08c1.3,1.14,3.53,2.82,5.35,2.82.9,0,2.43-.42,2.66-3.23a9.08,9.08,0,0,0-.38-2.53c0-.11,0-.2,0-.24-.18-1.56-.38-3.16-.58-4.72l1,.23a20,20,0,0,0,4.07.63,3.22,3.22,0,0,0,2.4-.77,2.21,2.21,0,0,0,.62-1.65,27.29,27.29,0,0,0-.45-3.82,14.7,14.7,0,0,1-.35-3.67c.85,0,3.22,1.37,5.65,3.21a2.12,2.12,0,0,0,1.23.45,1.49,1.49,0,0,0,1.42-1,1.84,1.84,0,0,0-.66-2c-1-.81-5.64-3.85-8.4-3.85Zm6.24,9c2.28,0,6.4,1.65,7.14,1.9s1.16,1.5.12,1.71a1.73,1.73,0,0,1-.41,0c-1.85,0-5.65-1.77-6.55-1.77a.33.33,0,0,0-.15,0c-.49.33,2.11,5.91.72,9a1.53,1.53,0,0,1-1.5.93c-1.62,0-3.89-1.61-4.82-2.11a1.19,1.19,0,0,0-.52-.15c-1.6,0-.69,5.58-.73,6.73-.08,2.67-.87,3.6-2.07,3.6s-3-1.07-4.8-2.22c-.92,2,1.37,5.94.08,7.2a1.13,1.13,0,0,1-.76.41c-1.5,0-1.58-5.75-1.61-6.81,0-1.77.48-2.35,1.29-2.35,1.58,0,4.17,2.21,5.37,2.21a.68.68,0,0,0,.29-.06c1.2-.57.18-7.95.33-9.27.11-.94.59-1.27,1.27-1.27,1.7,0,4.62,2.07,6,2.07a1,1,0,0,0,.35-.06c.69-.28-.56-7.78-.56-8.74,0-.71.62-1,1.52-1m0-.72a2.82,2.82,0,0,0-1.46.32,1.53,1.53,0,0,0-.78,1.37c0,.31.09,1,.25,2.24a50.61,50.61,0,0,1,.52,5.83,10.65,10.65,0,0,1-2.25-.88,9.78,9.78,0,0,0-3.59-1.18,1.91,1.91,0,0,0-2,1.91,18.36,18.36,0,0,0,.09,2.64c.1,1.6.34,5.28-.06,6.06a8.53,8.53,0,0,1-1.94-.91,7.94,7.94,0,0,0-3.37-1.31,1.78,1.78,0,0,0-1.33.54,3.41,3.41,0,0,0-.68,2.55v.19c.14,5.2.81,7.32,2.32,7.32a1.85,1.85,0,0,0,1.26-.61c.95-.94.62-2.51.27-4.17a11.85,11.85,0,0,1-.36-2.39c1.68,1,3.09,1.77,4.31,1.77,1.77,0,2.7-1.44,2.79-4.28,0-.3,0-.78-.08-1.4-.08-1-.33-4.07.13-4.63a.62.62,0,0,1,.14.06l.66.38c1.2.72,3,1.81,4.5,1.81a2.24,2.24,0,0,0,2.15-1.35c1-2.24.18-5.45-.38-7.58-.07-.27-.15-.57-.21-.83.4.12.91.3,1.37.46a16.81,16.81,0,0,0,4.55,1.16,3.12,3.12,0,0,0,.55,0,1.38,1.38,0,0,0,1.17-1.28,1.9,1.9,0,0,0-1.21-1.82l-.48-.18C190,91.23,186.61,90,184.52,90Z"/><path class="cls-50" d="M226.82,57c2.38,0,.12,8.92.54,11.31h0c.34,0,2.22-.23,3.85-.23s3.17.26,2.05,1.36c-.76.74-2.8.75-3.77,1-2.61.73-.93,3.06.25,4.93,2.35,3.76,10.56,6.16,9,8.7a1.09,1.09,0,0,1-1,.54c-2.42,0-7.42-5.59-8.93-7.65-1.09-1.49-1.53-4-2.88-5.27a1.35,1.35,0,0,0-.85-.2c-1.88,0-5.93,1.41-6.91,1.7,1,2.48,3,14.24-.75,15.52a1.19,1.19,0,0,1-.39.07c-1.8,0,.14-5.78.29-6.45a15.35,15.35,0,0,0-1-8.58c-1.57.54-3.46,1.57-4.62,1.57a.91.91,0,0,1-1-.64c-.5-1.58,2.87-2.21,5-3C213.78,68,212,65,209,62.09c-1.34-1.28-1.33-1.75-.77-1.75a6.36,6.36,0,0,1,3.11,1.51A21.45,21.45,0,0,1,215.45,67a23.92,23.92,0,0,1,2,4.1c2.56-.64,5.26-1.42,7.81-2.06-.28-4.32-1-11.92,1.5-12.06h.06m0-.71h-.1a1.87,1.87,0,0,0-1.32.67c-1.44,1.63-1.27,6-.92,11.24l0,.32c-1.1.28-2.23.59-3.33.89l-3.28.87a24.38,24.38,0,0,0-1.82-3.61,22.14,22.14,0,0,0-4.27-5.32,7,7,0,0,0-3.6-1.7,1,1,0,0,0-1,.6c-.25.61.11,1.28,1.27,2.39a34.56,34.56,0,0,1,6.29,8.66l-.63.2c-2,.67-4.61,1.49-4,3.43A1.58,1.58,0,0,0,211.78,76a9.67,9.67,0,0,0,3.28-1l.9-.37a14,14,0,0,1,.69,7.5,4.15,4.15,0,0,1-.13.48c-.87,3-1.3,5.29-.53,6.31a1.33,1.33,0,0,0,1.08.53,2,2,0,0,0,.62-.11,3.33,3.33,0,0,0,1.92-1.91c1.59-3.51.39-10.94-.48-13.82a27.63,27.63,0,0,1,6-1.45,1.32,1.32,0,0,1,.39,0A7.89,7.89,0,0,1,227,74.93a11.26,11.26,0,0,0,1.24,2.45c1,1.31,6.46,8,9.51,8a1.8,1.8,0,0,0,1.59-.88c1.26-2-1.28-3.64-4-5.35-1.89-1.21-4-2.58-5-4.11l-.24-.37c-.63-1-1.48-2.34-1.24-3,.1-.27.5-.43.81-.52s.65-.12,1.06-.18a5.56,5.56,0,0,0,3-1,1.45,1.45,0,0,0,.54-1.59c-.29-.71-1.19-1-3.09-1-1.15,0-2.43.11-3.2.18h0a32.82,32.82,0,0,1,.27-3.41c.41-3.74.61-6.27-.35-7.35a1.49,1.49,0,0,0-1.13-.5Z"/><text class="cls-51" transform="translate(220.9 103.57) rotate(-21.38)">P</text><text class="cls-51" transform="matrix(0.94, -0.33, 0.33, 0.94, 224.29, 102.26)">I</text><text class="cls-51" transform="translate(225.61 101.78) rotate(-17.51)">S</text><text class="cls-51" transform="translate(229.07 100.68) rotate(-14.61)">C</text><text class="cls-51" transform="translate(232.9 99.68) rotate(-11.69)">E</text><text class="cls-51" transform="translate(236.48 98.94) rotate(-8.91)">S</text><text class="cls-51" transform="translate(187.6 130.89) rotate(-54.59)">A</text><text class="cls-51" transform="matrix(0.62, -0.78, 0.78, 0.62, 189.7, 127.92)">Q</text><text class="cls-51" transform="matrix(0.66, -0.75, 0.75, 0.66, 192.34, 124.59)">U</text><text class="cls-51" transform="matrix(0.7, -0.71, 0.71, 0.7, 194.9, 121.7)">A</text><text class="cls-51" transform="translate(197.47 119.07) rotate(-42.68)">R</text><text class="cls-51" transform="translate(200.39 116.41) rotate(-40.62)">I</text><text class="cls-51" transform="matrix(0.78, -0.62, 0.62, 0.78, 201.44, 115.48)">U</text><text class="cls-51" transform="translate(204.54 113.01) rotate(-35.69)">S</text><text class="cls-51" transform="matrix(0.07, -1, 1, 0.07, 174.75, 169.88)">C</text><text class="cls-51" transform="translate(175.02 165.95) rotate(-83.21)">A</text><text class="cls-51" transform="translate(175.46 162.3) rotate(-80.43)">P</text><text class="cls-51" transform="translate(176.05 158.75) rotate(-77.55)">R</text><text class="cls-51" transform="translate(176.92 154.92) rotate(-75.49)">I</text><text class="cls-51" transform="translate(177.25 153.53) rotate(-73.44)">C</text><text class="cls-51" transform="translate(178.37 149.76) rotate(-70.3)">O</text><text class="cls-51" transform="translate(179.81 145.76) rotate(-67.18)">R</text><text class="cls-51" transform="matrix(0.44, -0.9, 0.9, 0.44, 181.33, 142.14)">N</text><text class="cls-51" transform="matrix(-0.46, -0.89, 0.89, -0.46, 183.98, 209.3)">S</text><text class="cls-51" transform="translate(182.3 206.05) rotate(-114.59)">A</text><text class="cls-51" transform="translate(180.8 202.8) rotate(-111.62)">G</text><text class="cls-51" transform="translate(179.23 198.76) rotate(-109.41)">I</text><text class="cls-51" transform="matrix(-0.3, -0.95, 0.95, -0.3, 178.74, 197.42)">T</text><text class="cls-51" transform="translate(177.75 194.3) rotate(-105.1)">T</text><text class="cls-51" transform="translate(177 191.59) rotate(-102.79)">A</text><text class="cls-51" transform="translate(176.19 188.02) rotate(-99.88)">R</text><text class="cls-51" transform="translate(175.53 184.13) rotate(-97.83)">I</text><text class="cls-51" transform="translate(175.31 182.71) rotate(-95.78)">U</text><text class="cls-51" transform="translate(174.92 178.78) rotate(-92.91)">S</text><text class="cls-51" transform="translate(206.48 234.54) rotate(-143.32)">S</text><text class="cls-51" transform="translate(203.57 232.38) rotate(-140.43)">C</text><text class="cls-51" transform="matrix(-0.74, -0.68, 0.68, -0.74, 200.55, 229.89)">O</text><text class="cls-51" transform="matrix(-0.7, -0.72, 0.72, -0.7, 197.42, 227)">R</text><text class="cls-51" transform="matrix(-0.66, -0.75, 0.75, -0.66, 194.67, 224.17)">P</text><text class="cls-51" transform="translate(192.31 221.44) rotate(-129.35)">I</text><text class="cls-51" transform="matrix(-0.6, -0.8, 0.8, -0.6, 191.38, 220.36)">O</text><text class="cls-51" transform="matrix(-0.98, -0.17, 0.17, -0.98, 238.44, 247.5)">L</text><text class="cls-51" transform="translate(235.58 246.99) rotate(-168.39)">I</text><text class="cls-51" transform="translate(234.18 246.72) rotate(-166.39)">B</text><text class="cls-51" transform="translate(230.51 245.84) rotate(-163.43)">R</text><text class="cls-51" transform="matrix(-0.94, -0.33, 0.33, -0.94, 226.74, 244.71)">A</text><text class="cls-51" transform="translate(277.96 243.04) rotate(159.57)">V</text><text class="cls-51" transform="matrix(-0.95, 0.32, -0.32, -0.95, 274.67, 244.25)">I</text><text class="cls-51" transform="translate(273.34 244.72) rotate(163.51)">R</text><text class="cls-51" transform="translate(269.66 245.82) rotate(166.59)">G</text><text class="cls-51" transform="translate(265.47 246.82) rotate(169.88)">O</text><text class="cls-51" transform="matrix(-0.67, 0.74, -0.74, -0.67, 307.13, 222.22)">L</text><text class="cls-51" transform="matrix(-0.7, 0.71, -0.71, -0.7, 305.2, 224.39)">E</text><text class="cls-51" transform="matrix(-0.74, 0.68, -0.68, -0.74, 302.66, 227)">O</text><text class="cls-51" transform="matrix(-0.13, 0.99, -0.99, -0.13, 324.97, 180.99)">C</text><text class="cls-51" transform="translate(324.45 184.89) rotate(100.44)">A</text><text class="cls-51" transform="translate(323.79 188.5) rotate(103.36)">N</text><text class="cls-51" transform="translate(322.87 192.38) rotate(106.41)">C</text><text class="cls-51" transform="translate(321.75 196.16) rotate(109.32)">E</text><text class="cls-51" transform="translate(320.56 199.59) rotate(112.2)">R</text><text class="cls-51" transform="translate(319.63 144.15) rotate(69.08)">G</text><text class="cls-51" transform="matrix(0.31, 0.95, -0.95, 0.31, 321.16, 148.19)">E</text><text class="cls-51" transform="matrix(0.25, 0.97, -0.97, 0.25, 322.3, 151.67)">M</text><text class="cls-51" transform="translate(323.43 156.11) rotate(77.6)">I</text><text class="cls-51" transform="translate(323.76 157.5) rotate(79.67)">N</text><text class="cls-51" transform="matrix(0.14, 0.99, -0.99, 0.14, 324.45, 161.42)">I</text><text class="cls-51" transform="matrix(0.79, 0.61, -0.61, 0.79, 294.9, 112.53)">T</text><text class="cls-51" transform="matrix(0.76, 0.64, -0.64, 0.76, 297.14, 114.25)">A</text><text class="cls-51" transform="matrix(0.73, 0.68, -0.68, 0.73, 299.9, 116.56)">U</text><text class="cls-51" transform="translate(302.79 119.25) rotate(45.98)">R</text><text class="cls-51" transform="matrix(0.66, 0.75, -0.75, 0.66, 305.44, 121.99)">U</text><text class="cls-51" transform="matrix(0.62, 0.79, -0.79, 0.62, 308.05, 124.98)">S</text><text class="cls-51" transform="translate(261.31 98.55) rotate(10.01)">A</text><text class="cls-51" transform="translate(264.94 99.19) rotate(12.92)">R</text><text class="cls-51" transform="translate(268.79 100.1) rotate(14.99)">I</text><text class="cls-51" transform="matrix(0.96, 0.29, -0.29, 0.96, 270.18, 100.45)">E</text><text class="cls-51" transform="translate(273.66 101.51) rotate(19.73)">S</text></svg>