<svg width="40" height="40" viewBox="0 0 40 40" fill="none" xmlns="http://www.w3.org/2000/svg">
<g id="Group 62049">
<circle id="Ellipse 142" cx="20" cy="20" r="20" fill="#D9D9D9"/>
<g id="&#240;&#159;&#166;&#134; icon &#34;profile&#34;">
<g id="Group">
<path id="Vector" d="M20.1618 18.2223C20.0128 18.2074 19.8339 18.2074 19.6699 18.2223C16.1221 18.103 13.3047 15.1962 13.3047 11.6186C13.3047 7.96644 16.2562 5 19.9233 5C23.5755 5 26.5419 7.96644 26.5419 11.6186C26.527 15.1962 23.7096 18.103 20.1618 18.2223Z" stroke="#A9A9A9" stroke-width="2" stroke-linecap="round" stroke-linejoin="round"/>
<path id="Vector_2" d="M12.7056 23.7237C9.09814 26.1386 9.09814 30.074 12.7056 32.4739C16.8049 35.2168 23.5279 35.2168 27.6273 32.4739C31.2347 30.059 31.2347 26.1237 27.6273 23.7237C23.5428 20.9958 16.8198 20.9958 12.7056 23.7237Z" stroke="#A9A9A9" stroke-width="2" stroke-linecap="round" stroke-linejoin="round"/>
</g>
</g>
</g>
</svg>
