<svg width="44" height="44" viewBox="0 0 44 44" fill="none" xmlns="http://www.w3.org/2000/svg">
<g id="Phone Telephone">
<path id="Vector" d="M27.2965 39.4294C29.1 40.5947 31.2492 41.1026 33.3826 40.8675C35.516 40.6325 37.5036 39.6689 39.0111 38.1388L40.329 36.8482C40.9068 36.2563 41.2303 35.4615 41.2303 34.6337C41.2303 33.8059 40.9068 33.011 40.329 32.4192L34.7353 26.8755C34.1492 26.2987 33.3604 25.9754 32.5388 25.9754C31.7171 25.9754 30.9283 26.2987 30.3423 26.8755C29.7513 27.4541 28.9576 27.7782 28.1311 27.7782C27.3046 27.7782 26.511 27.4541 25.92 26.8755L17.134 18.076C16.8409 17.7867 16.6082 17.442 16.4493 17.0618C16.2905 16.6816 16.2086 16.2736 16.2086 15.8615C16.2086 15.4493 16.2905 15.0413 16.4493 14.6611C16.6082 14.2809 16.8409 13.9362 17.134 13.6469C17.71 13.06 18.0327 12.27 18.0327 11.447C18.0327 10.6241 17.71 9.8341 17.134 9.24717L11.5696 3.67416C10.9786 3.09549 10.1849 2.77148 9.35843 2.77148C8.53193 2.77148 7.73827 3.09549 7.14729 3.67416L5.85868 4.99408C4.33093 6.5039 3.36883 8.49452 3.13415 10.6312C2.89948 12.7679 3.40653 14.9204 4.57007 16.7267C10.6325 25.675 18.3463 33.3808 27.2965 39.4294Z" stroke="white" stroke-width="2" stroke-linecap="round" stroke-linejoin="round"/>
</g>
</svg>
