<svg width="44" height="44" viewBox="0 0 44 44" fill="none" xmlns="http://www.w3.org/2000/svg">
<g id="Mail Chat Bubble Typing Oval">
<g id="Group">
<path id="Vector" d="M13.1597 23.4785C13.8929 23.4785 14.4873 22.8841 14.4873 22.1509C14.4873 21.4176 13.8929 20.8232 13.1597 20.8232C12.4264 20.8232 11.832 21.4176 11.832 22.1509C11.832 22.8841 12.4264 23.4785 13.1597 23.4785Z" stroke="white" stroke-width="2" stroke-linecap="round" stroke-linejoin="round"/>
<path id="Vector_2" d="M21.7925 23.4785C22.5257 23.4785 23.1201 22.8841 23.1201 22.1509C23.1201 21.4176 22.5257 20.8232 21.7925 20.8232C21.0592 20.8232 20.4648 21.4176 20.4648 22.1509C20.4648 22.8841 21.0592 23.4785 21.7925 23.4785Z" stroke="white" stroke-width="2" stroke-linecap="round" stroke-linejoin="round"/>
<path id="Vector_3" d="M30.4214 23.4785C31.1546 23.4785 31.749 22.8841 31.749 22.1509C31.749 21.4176 31.1546 20.8232 30.4214 20.8232C29.6882 20.8232 29.0938 21.4176 29.0938 22.1509C29.0938 22.8841 29.6882 23.4785 30.4214 23.4785Z" stroke="white" stroke-width="2" stroke-linecap="round" stroke-linejoin="round"/>
<path id="Vector_4" d="M22.4546 4.8916C19.3327 4.89258 16.2694 5.74034 13.5912 7.34459C10.9129 8.94884 8.71992 11.2495 7.24581 14.0015C5.7717 16.7536 5.07166 19.8539 5.22024 22.9724C5.36883 26.0908 6.36048 29.1105 8.08957 31.7099L5.19531 39.4102L14.8871 37.6578C17.2208 38.7982 19.7819 39.3972 22.3793 39.41C24.9768 39.4229 27.5437 38.8493 29.8886 37.7321C32.2335 36.6148 34.296 34.9827 35.9224 32.9573C37.5487 30.932 38.6969 28.5657 39.2815 26.0348C39.866 23.504 39.8717 20.8738 39.2982 18.3404C38.7248 15.807 37.5869 13.4357 35.9694 11.4033C34.3519 9.37091 32.2965 7.7298 29.9565 6.60232C27.6165 5.47484 25.0521 4.89007 22.4546 4.8916Z" stroke="white" stroke-width="2" stroke-linecap="round" stroke-linejoin="round"/>
</g>
</g>
</svg>
