<svg width="88" height="88" viewBox="0 0 88 88" fill="none" xmlns="http://www.w3.org/2000/svg">
<g id="Group 62042">
<g id="Ellipse 136" filter="url(#filter0_di_4419_768)">
<circle cx="44" cy="40" r="39" fill="url(#paint0_linear_4419_768)" shape-rendering="crispEdges"/>
</g>
<g id="&#240;&#159;&#166;&#134; icon &#34;video&#34;">
<g id="Group">
<path id="Vector" d="M45.9714 62.0436H32.5757C25.8779 62.0436 23.6523 56.7573 23.6523 51.4458V30.2502C23.6523 22.2955 25.8779 19.6523 32.5757 19.6523H45.9714C52.6692 19.6523 54.8947 22.2955 54.8947 30.2502V51.4458C54.8947 59.4005 52.648 62.0436 45.9714 62.0436Z" stroke="white" stroke-width="2" stroke-linecap="round" stroke-linejoin="round"/>
<path id="Vector_2" d="M60.7869 53.6853L54.8945 48.7766V32.8924L60.7869 27.9837C63.6695 25.5923 66.0434 27.0523 66.0434 31.2562V50.438C66.0434 54.6419 63.6695 56.1019 60.7869 53.6853Z" stroke="white" stroke-width="2" stroke-linecap="round" stroke-linejoin="round"/>
<path id="Vector_3" d="M43.7887 38.3302C45.5446 38.3302 46.9681 36.6396 46.9681 34.5543C46.9681 32.4689 45.5446 30.7783 43.7887 30.7783C42.0329 30.7783 40.6094 32.4689 40.6094 34.5543C40.6094 36.6396 42.0329 38.3302 43.7887 38.3302Z" stroke="white" stroke-width="2" stroke-linecap="round" stroke-linejoin="round"/>
</g>
</g>
</g>
<defs>
<filter id="filter0_di_4419_768" x="0" y="0" width="88" height="88" filterUnits="userSpaceOnUse" color-interpolation-filters="sRGB">
<feFlood flood-opacity="0" result="BackgroundImageFix"/>
<feColorMatrix in="SourceAlpha" type="matrix" values="0 0 0 0 0 0 0 0 0 0 0 0 0 0 0 0 0 0 127 0" result="hardAlpha"/>
<feMorphology radius="5" operator="erode" in="SourceAlpha" result="effect1_dropShadow_4419_768"/>
<feOffset dy="4"/>
<feGaussianBlur stdDeviation="5"/>
<feComposite in2="hardAlpha" operator="out"/>
<feColorMatrix type="matrix" values="0 0 0 0 0.916667 0 0 0 0 0.892882 0 0 0 0 0.882292 0 0 0 1 0"/>
<feBlend mode="normal" in2="BackgroundImageFix" result="effect1_dropShadow_4419_768"/>
<feBlend mode="normal" in="SourceGraphic" in2="effect1_dropShadow_4419_768" result="shape"/>
<feColorMatrix in="SourceAlpha" type="matrix" values="0 0 0 0 0 0 0 0 0 0 0 0 0 0 0 0 0 0 127 0" result="hardAlpha"/>
<feOffset dy="4"/>
<feGaussianBlur stdDeviation="2"/>
<feComposite in2="hardAlpha" operator="arithmetic" k2="-1" k3="1"/>
<feColorMatrix type="matrix" values="0 0 0 0 0.917647 0 0 0 0 0.894118 0 0 0 0 0.882353 0 0 0 0.25 0"/>
<feBlend mode="normal" in2="shape" result="effect2_innerShadow_4419_768"/>
</filter>
<linearGradient id="paint0_linear_4419_768" x1="44" y1="1" x2="44" y2="79" gradientUnits="userSpaceOnUse">
<stop stop-color="#00AF1C"/>
<stop offset="0.9999" stop-color="#90E4CB" stop-opacity="0.702188"/>
<stop offset="1" stop-color="#E48F93" stop-opacity="0.7"/>
</linearGradient>
</defs>
</svg>
