<svg width="88" height="88" viewBox="0 0 88 88" fill="none" xmlns="http://www.w3.org/2000/svg">
<g id="Group 62044">
<g id="Ellipse 138" filter="url(#filter0_di_4419_770)">
<circle cx="44" cy="40" r="39" fill="url(#paint0_linear_4419_770)" shape-rendering="crispEdges"/>
</g>
<g id="Group">
<path id="Vector" d="M46.5576 23.8465C47.6216 25.3659 48.2423 27.1848 48.2423 29.1535C48.2201 34.2892 44.0307 38.462 38.7552 38.6332C38.5335 38.6118 38.2675 38.6118 38.0237 38.6332C32.7481 38.462 28.5586 34.2892 28.5586 29.1535C28.5586 23.9107 32.9476 19.6523 38.4005 19.6523" stroke="white" stroke-width="2" stroke-linecap="round" stroke-linejoin="round"/>
<path id="Vector_2" d="M54.8272 23.9316C59.1275 23.9316 62.5855 27.2913 62.5855 31.4213C62.5855 35.4657 59.2605 38.7611 55.1154 38.9109C54.9381 38.8895 54.7386 38.8895 54.5391 38.9109" stroke="white" stroke-width="2" stroke-linecap="round" stroke-linejoin="round"/>
<path id="Vector_3" d="M27.6756 46.5293C22.3113 49.9959 22.3113 55.6452 27.6756 59.0905C33.7713 63.0279 43.7684 63.0279 49.8642 59.0905C55.2285 55.6238 55.2285 49.9745 49.8642 46.5293C43.7906 42.6133 33.7935 42.6133 27.6756 46.5293Z" stroke="white" stroke-width="2" stroke-linecap="round" stroke-linejoin="round"/>
<path id="Vector_4" d="M59.1016 58.1704C60.6975 57.8494 62.2049 57.2289 63.4462 56.3087C66.9042 53.805 66.9042 49.675 63.4462 47.1714C62.227 46.2726 60.7419 45.6734 59.1681 45.3311" stroke="white" stroke-width="2" stroke-linecap="round" stroke-linejoin="round"/>
</g>
</g>
<defs>
<filter id="filter0_di_4419_770" x="0" y="0" width="88" height="88" filterUnits="userSpaceOnUse" color-interpolation-filters="sRGB">
<feFlood flood-opacity="0" result="BackgroundImageFix"/>
<feColorMatrix in="SourceAlpha" type="matrix" values="0 0 0 0 0 0 0 0 0 0 0 0 0 0 0 0 0 0 127 0" result="hardAlpha"/>
<feMorphology radius="5" operator="erode" in="SourceAlpha" result="effect1_dropShadow_4419_770"/>
<feOffset dy="4"/>
<feGaussianBlur stdDeviation="5"/>
<feComposite in2="hardAlpha" operator="out"/>
<feColorMatrix type="matrix" values="0 0 0 0 0.916667 0 0 0 0 0.892882 0 0 0 0 0.882292 0 0 0 1 0"/>
<feBlend mode="normal" in2="BackgroundImageFix" result="effect1_dropShadow_4419_770"/>
<feBlend mode="normal" in="SourceGraphic" in2="effect1_dropShadow_4419_770" result="shape"/>
<feColorMatrix in="SourceAlpha" type="matrix" values="0 0 0 0 0 0 0 0 0 0 0 0 0 0 0 0 0 0 127 0" result="hardAlpha"/>
<feOffset dy="4"/>
<feGaussianBlur stdDeviation="2"/>
<feComposite in2="hardAlpha" operator="arithmetic" k2="-1" k3="1"/>
<feColorMatrix type="matrix" values="0 0 0 0 0.917647 0 0 0 0 0.894118 0 0 0 0 0.882353 0 0 0 0.25 0"/>
<feBlend mode="normal" in2="shape" result="effect2_innerShadow_4419_770"/>
</filter>
<linearGradient id="paint0_linear_4419_770" x1="44" y1="1" x2="44" y2="79" gradientUnits="userSpaceOnUse">
<stop stop-color="#00B8F0"/>
<stop offset="1" stop-color="#E48F93" stop-opacity="0.7"/>
</linearGradient>
</defs>
</svg>
