<svg width="88" height="88" viewBox="0 0 88 88" fill="none" xmlns="http://www.w3.org/2000/svg">
<g id="Group 62037">
<g id="Ellipse 131" filter="url(#filter0_di_4419_763)">
<circle cx="44" cy="40" r="39" fill="url(#paint0_linear_4419_763)" shape-rendering="crispEdges"/>
</g>
<g id="&#240;&#159;&#166;&#134; icon &#34;gift&#34;">
<g id="Group">
<path id="Vector" d="M51.3614 62.0438H34.8185C27.7464 62.0438 24.9961 59.4208 24.9961 52.6761V36.899C24.9961 36.0904 25.6992 35.4199 26.547 35.4199H59.6329C60.4807 35.4199 61.1838 36.0904 61.1838 36.899V52.6761C61.1838 59.4208 58.4335 62.0438 51.3614 62.0438ZM28.0979 38.3781V52.6761C28.0979 57.7642 29.4834 59.0856 34.8185 59.0856H51.3614C56.6965 59.0856 58.082 57.7642 58.082 52.6761V38.3781H28.0979Z" fill="white"/>
<path id="Vector_2" d="M58.6617 38.3775H27.6437C24.0249 38.3775 21.957 36.4053 21.957 32.9541V30.982C21.957 27.5307 24.0249 25.5586 27.6437 25.5586H58.6617C62.1771 25.5586 64.3483 27.6293 64.3483 30.982V32.9541C64.3483 36.3067 62.1771 38.3775 58.6617 38.3775ZM27.6437 28.5168C25.7619 28.5168 25.0588 29.1873 25.0588 30.982V32.9541C25.0588 34.7487 25.7619 35.4193 27.6437 35.4193H58.6617C60.4814 35.4193 61.2465 34.6896 61.2465 32.9541V30.982C61.2465 29.2465 60.4814 28.5168 58.6617 28.5168H27.6437Z" fill="white"/>
<path id="Vector_3" d="M42.4078 28.5171H30.9932C30.559 28.5171 30.1454 28.3396 29.8559 28.0438C28.5945 26.7225 28.6358 24.6912 29.9593 23.429L32.8956 20.6286C34.2604 19.3269 36.5144 19.3269 37.8792 20.6286L43.5038 25.9928C43.938 26.4069 44.0828 27.0577 43.8346 27.6099C43.6072 28.1621 43.0488 28.5171 42.4078 28.5171ZM32.1305 25.5589H38.6857L35.6873 22.719C35.5218 22.5612 35.253 22.5612 35.0876 22.719L32.1512 25.5194C32.1512 25.5392 32.1305 25.5392 32.1305 25.5589Z" fill="white"/>
<path id="Vector_4" d="M55.2945 28.5171H43.8799C43.2595 28.5171 42.6805 28.1621 42.4531 27.6099C42.2049 27.0577 42.3497 26.4266 42.7839 25.9928L48.4085 20.6286C49.7733 19.3269 52.0273 19.3269 53.3921 20.6286L56.3284 23.429C57.6519 24.6912 57.7139 26.7225 56.4318 28.0438C56.1423 28.3396 55.7288 28.5171 55.2945 28.5171ZM47.6434 25.5589H54.1985C54.1779 25.5392 54.1779 25.5392 54.1572 25.5194L51.2208 22.719C51.0554 22.5612 50.7866 22.5612 50.6211 22.719L47.6434 25.5589Z" fill="white"/>
<path id="Vector_5" d="M38.8883 50.5068C38.3093 50.5068 37.7096 50.3687 37.172 50.0926C35.9933 49.4813 35.2695 48.3177 35.2695 47.0555V36.899C35.2695 36.0904 35.9726 35.4199 36.8204 35.4199H49.3105C50.1583 35.4199 50.8614 36.0904 50.8614 36.899V47.0161C50.8614 48.298 50.1376 49.4615 48.9589 50.0532C47.7802 50.6645 46.3534 50.5856 45.2368 49.8757L43.3964 48.6924C43.2309 48.5741 43.0035 48.5741 42.8174 48.6924L40.8736 49.9151C40.2739 50.3096 39.5708 50.5068 38.8883 50.5068ZM38.3713 38.3781V47.0358C38.3713 47.2922 38.5368 47.4105 38.6402 47.4697C38.7436 47.5288 38.9503 47.588 39.1779 47.45L41.1217 46.2272C42.3417 45.4581 43.9133 45.4581 45.1127 46.2272L46.9531 47.4105C47.1806 47.5486 47.3873 47.4894 47.4907 47.4302C47.5941 47.3711 47.7596 47.2527 47.7596 46.9964V38.3584H38.3713V38.3781Z" fill="white"/>
</g>
</g>
</g>
<defs>
<filter id="filter0_di_4419_763" x="0" y="0" width="88" height="88" filterUnits="userSpaceOnUse" color-interpolation-filters="sRGB">
<feFlood flood-opacity="0" result="BackgroundImageFix"/>
<feColorMatrix in="SourceAlpha" type="matrix" values="0 0 0 0 0 0 0 0 0 0 0 0 0 0 0 0 0 0 127 0" result="hardAlpha"/>
<feMorphology radius="5" operator="erode" in="SourceAlpha" result="effect1_dropShadow_4419_763"/>
<feOffset dy="4"/>
<feGaussianBlur stdDeviation="5"/>
<feComposite in2="hardAlpha" operator="out"/>
<feColorMatrix type="matrix" values="0 0 0 0 0.916667 0 0 0 0 0.892882 0 0 0 0 0.882292 0 0 0 1 0"/>
<feBlend mode="normal" in2="BackgroundImageFix" result="effect1_dropShadow_4419_763"/>
<feBlend mode="normal" in="SourceGraphic" in2="effect1_dropShadow_4419_763" result="shape"/>
<feColorMatrix in="SourceAlpha" type="matrix" values="0 0 0 0 0 0 0 0 0 0 0 0 0 0 0 0 0 0 127 0" result="hardAlpha"/>
<feOffset dy="4"/>
<feGaussianBlur stdDeviation="2"/>
<feComposite in2="hardAlpha" operator="arithmetic" k2="-1" k3="1"/>
<feColorMatrix type="matrix" values="0 0 0 0 0.917647 0 0 0 0 0.894118 0 0 0 0 0.882353 0 0 0 0.25 0"/>
<feBlend mode="normal" in2="shape" result="effect2_innerShadow_4419_763"/>
</filter>
<linearGradient id="paint0_linear_4419_763" x1="44" y1="1" x2="44" y2="79" gradientUnits="userSpaceOnUse">
<stop stop-color="#E48F93" stop-opacity="0.7"/>
<stop offset="1" stop-color="#0029FF" stop-opacity="0.45"/>
</linearGradient>
</defs>
</svg>
