<svg width="88" height="88" viewBox="0 0 88 88" fill="none" xmlns="http://www.w3.org/2000/svg">
<g id="Group 62033">
<g id="Ellipse 126" filter="url(#filter0_di_4419_759)">
<circle cx="44" cy="40" r="39" fill="url(#paint0_linear_4419_759)"/>
</g>
<g id="&#240;&#159;&#166;&#134; icon &#34;archive book&#34;">
<g id="Group">
<path id="Vector" d="M62.652 30.2502V51.4458C62.652 57.8045 59.5433 62.0436 52.2897 62.0436H35.71C28.4564 62.0436 25.3477 57.8045 25.3477 51.4458V30.2502C25.3477 23.8915 28.4564 19.6523 35.71 19.6523H52.2897C59.5433 19.6523 62.652 23.8915 62.652 30.2502Z" stroke="white" stroke-width="2" stroke-miterlimit="10" stroke-linecap="round" stroke-linejoin="round"/>
<path id="Vector_2" d="M51.2533 19.6523V36.3121C51.2533 37.2447 50.1757 37.711 49.5125 37.0964L44.7044 32.5606C44.3106 32.179 43.6888 32.179 43.2951 32.5606L38.487 37.0964C37.8238 37.711 36.7461 37.2447 36.7461 36.3121V19.6523H51.2533Z" stroke="white" stroke-width="2" stroke-miterlimit="10" stroke-linecap="round" stroke-linejoin="round"/>
<path id="Vector_3" d="M46.5898 45.0869H55.3978" stroke="white" stroke-width="2" stroke-miterlimit="10" stroke-linecap="round" stroke-linejoin="round"/>
<path id="Vector_4" d="M37.7812 53.5654H55.3972" stroke="white" stroke-width="2" stroke-miterlimit="10" stroke-linecap="round" stroke-linejoin="round"/>
</g>
</g>
</g>
<defs>
<filter id="filter0_di_4419_759" x="0" y="0" width="88" height="88" filterUnits="userSpaceOnUse" color-interpolation-filters="sRGB">
<feFlood flood-opacity="0" result="BackgroundImageFix"/>
<feColorMatrix in="SourceAlpha" type="matrix" values="0 0 0 0 0 0 0 0 0 0 0 0 0 0 0 0 0 0 127 0" result="hardAlpha"/>
<feMorphology radius="5" operator="erode" in="SourceAlpha" result="effect1_dropShadow_4419_759"/>
<feOffset dy="4"/>
<feGaussianBlur stdDeviation="5"/>
<feComposite in2="hardAlpha" operator="out"/>
<feColorMatrix type="matrix" values="0 0 0 0 0.916667 0 0 0 0 0.892882 0 0 0 0 0.882292 0 0 0 1 0"/>
<feBlend mode="normal" in2="BackgroundImageFix" result="effect1_dropShadow_4419_759"/>
<feBlend mode="normal" in="SourceGraphic" in2="effect1_dropShadow_4419_759" result="shape"/>
<feColorMatrix in="SourceAlpha" type="matrix" values="0 0 0 0 0 0 0 0 0 0 0 0 0 0 0 0 0 0 127 0" result="hardAlpha"/>
<feOffset dy="4"/>
<feGaussianBlur stdDeviation="2"/>
<feComposite in2="hardAlpha" operator="arithmetic" k2="-1" k3="1"/>
<feColorMatrix type="matrix" values="0 0 0 0 0.917647 0 0 0 0 0.894118 0 0 0 0 0.882353 0 0 0 0.25 0"/>
<feBlend mode="normal" in2="shape" result="effect2_innerShadow_4419_759"/>
</filter>
<linearGradient id="paint0_linear_4419_759" x1="44" y1="1" x2="44" y2="79" gradientUnits="userSpaceOnUse">
<stop stop-color="#3E5DAB"/>
<stop offset="1" stop-color="#72B4D7"/>
</linearGradient>
</defs>
</svg>
