<svg width="88" height="88" viewBox="0 0 88 88" fill="none" xmlns="http://www.w3.org/2000/svg">
<g id="Group 62038">
<g id="Ellipse 132" filter="url(#filter0_di_4419_764)">
<circle cx="44" cy="40" r="39" fill="url(#paint0_linear_4419_764)" shape-rendering="crispEdges"/>
</g>
<g id="&#240;&#159;&#166;&#134; icon &#34;magic star&#34;">
<g id="Group">
<path id="Vector" d="M53.3811 24.2093L53.3811 24.2077C53.4196 22.2596 52.7954 21.5101 52.3732 21.2904C51.9454 21.0679 50.9584 20.9876 49.3593 22.1317L49.3576 22.1329L42.6873 26.8914C41.9837 27.4029 41.1039 27.6916 40.2895 27.8149C39.4693 27.939 38.5509 27.9202 37.7372 27.6625L37.7258 27.6589L37.7259 27.6589L31.3322 25.5781C31.332 25.5781 31.3318 25.578 31.3316 25.5779C31.3315 25.5779 31.3314 25.5779 31.3312 25.5778C29.5298 24.9932 28.6223 25.3517 28.2706 25.6957C27.9241 26.0347 27.5513 26.9162 28.1105 28.6998C28.1107 28.7003 28.1108 28.7008 28.111 28.7013L30.2984 35.6254C30.2986 35.6259 30.2988 35.6264 30.2989 35.6269C30.5822 36.5187 30.5582 37.512 30.3742 38.3788C30.1899 39.2473 29.8083 40.1608 29.199 40.8617L29.1988 40.8619L24.909 45.794C24.9087 45.7943 24.9084 45.7946 24.9082 45.7949C23.303 47.6487 23.3817 48.6818 23.5445 49.0101C23.7128 49.3493 24.5093 50.0443 26.9738 49.9218L34.2127 49.5571L34.214 49.5571C35.189 49.5088 36.1885 49.7931 37.0235 50.2233C37.8573 50.6528 38.677 51.3051 39.2024 52.1492L53.3811 24.2093ZM53.3811 24.2093L53.2294 32.3393M53.3811 24.2093L47.6437 57.5784L49.3098 51.2823C49.3103 51.2805 49.3108 51.2786 49.3112 51.2767C49.5462 50.3687 50.0979 49.5387 50.7143 48.9018C51.3335 48.262 52.1419 47.6888 53.0259 47.4133L53.0286 47.4125L60.0262 45.2468C60.0267 45.2467 60.0272 45.2465 60.0278 45.2463C61.8442 44.6782 62.368 43.8631 62.4513 43.3922C62.5333 42.9284 62.3275 41.9971 60.8115 40.8647L60.809 40.8628L55.44 36.8345C54.738 36.3188 54.1959 35.5661 53.8344 34.8272C53.471 34.0846 53.2127 33.1978 53.2294 32.3393M53.2294 32.3393L54.7291 32.3684M53.2294 32.3393L53.2294 32.3405L54.7291 32.3684M54.7291 32.3684L54.8809 24.2372L56.3334 35.6295C55.423 34.9644 54.7074 33.4841 54.7291 32.3684ZM43.0174 58.2636L39.2037 52.1512L47.6433 57.5798C47.0179 59.933 46.1148 60.4769 45.7262 60.5348C45.3359 60.593 44.3099 60.3347 43.0174 58.2637C43.0174 58.2637 43.0174 58.2636 43.0174 58.2636Z" stroke="white" stroke-width="3"/>
<path id="Vector_2" opacity="0.4" d="M56.6048 53.4816L63.1728 59.9822C63.406 60.2131 63.406 60.6041 63.1728 60.8349C63.0458 60.9606 62.8916 61.0177 62.7274 61.0177C62.5632 61.0177 62.409 60.9606 62.282 60.8349L55.714 54.3343C55.4808 54.1034 55.4808 53.7124 55.714 53.4816C55.9529 53.2451 56.3658 53.2451 56.6048 53.4816Z" stroke="white" stroke-width="2"/>
</g>
</g>
</g>
<defs>
<filter id="filter0_di_4419_764" x="0" y="0" width="88" height="88" filterUnits="userSpaceOnUse" color-interpolation-filters="sRGB">
<feFlood flood-opacity="0" result="BackgroundImageFix"/>
<feColorMatrix in="SourceAlpha" type="matrix" values="0 0 0 0 0 0 0 0 0 0 0 0 0 0 0 0 0 0 127 0" result="hardAlpha"/>
<feMorphology radius="5" operator="erode" in="SourceAlpha" result="effect1_dropShadow_4419_764"/>
<feOffset dy="4"/>
<feGaussianBlur stdDeviation="5"/>
<feComposite in2="hardAlpha" operator="out"/>
<feColorMatrix type="matrix" values="0 0 0 0 0.916667 0 0 0 0 0.892882 0 0 0 0 0.882292 0 0 0 1 0"/>
<feBlend mode="normal" in2="BackgroundImageFix" result="effect1_dropShadow_4419_764"/>
<feBlend mode="normal" in="SourceGraphic" in2="effect1_dropShadow_4419_764" result="shape"/>
<feColorMatrix in="SourceAlpha" type="matrix" values="0 0 0 0 0 0 0 0 0 0 0 0 0 0 0 0 0 0 127 0" result="hardAlpha"/>
<feOffset dy="4"/>
<feGaussianBlur stdDeviation="2"/>
<feComposite in2="hardAlpha" operator="arithmetic" k2="-1" k3="1"/>
<feColorMatrix type="matrix" values="0 0 0 0 0.917647 0 0 0 0 0.894118 0 0 0 0 0.882353 0 0 0 0.25 0"/>
<feBlend mode="normal" in2="shape" result="effect2_innerShadow_4419_764"/>
</filter>
<linearGradient id="paint0_linear_4419_764" x1="44" y1="1" x2="44" y2="79" gradientUnits="userSpaceOnUse">
<stop stop-color="#FF6730"/>
<stop offset="0.0001" stop-color="#FD089B"/>
<stop offset="1" stop-color="#FFEBC0" stop-opacity="0.6"/>
</linearGradient>
</defs>
</svg>
