<svg width="88" height="88" viewBox="0 0 88 88" fill="none" xmlns="http://www.w3.org/2000/svg">
<g id="Group 62041">
<g id="Ellipse 135" filter="url(#filter0_di_4419_767)">
<circle cx="44" cy="40" r="39" fill="url(#paint0_linear_4419_767)" shape-rendering="crispEdges"/>
</g>
<g id="&#240;&#159;&#166;&#134; icon &#34;setting 2&#34;">
<g id="Group">
<path id="Vector" d="M44.8284 48.6409C40.7508 48.6409 37.4414 45.1467 37.4414 40.8414C37.4414 36.5361 40.7508 33.042 44.8284 33.042C48.906 33.042 52.2153 36.5361 52.2153 40.8414C52.2153 45.1467 48.906 48.6409 44.8284 48.6409ZM44.8284 36.1618C42.3857 36.1618 40.3962 38.2624 40.3962 40.8414C40.3962 43.4205 42.3857 45.5211 44.8284 45.5211C47.271 45.5211 49.2605 43.4205 49.2605 40.8414C49.2605 38.2624 47.271 36.1618 44.8284 36.1618Z" fill="white"/>
<path id="Vector_2" d="M51.1515 62.0352C50.7379 62.0352 50.3242 61.9728 49.9105 61.8688C48.6892 61.5152 47.6649 60.7041 47.0148 59.5601L46.7785 59.1442C45.6162 57.0227 44.0207 57.0227 42.8584 59.1442L42.6418 59.5393C41.9917 60.7041 40.9674 61.536 39.7461 61.8688C38.5051 62.2224 37.2247 62.0352 36.1412 61.3488L32.7531 59.2898C31.5515 58.5618 30.6847 57.3763 30.3105 55.9412C29.9559 54.5061 30.1332 53.0294 30.8226 51.7607C31.3939 50.7 31.5515 49.7432 31.2166 49.1401C30.8817 48.5369 30.0347 48.1833 28.8725 48.1833C25.9965 48.1833 23.6523 45.7083 23.6523 42.6717V39.0112C23.6523 35.9746 25.9965 33.4996 28.8725 33.4996C30.0347 33.4996 30.8817 33.146 31.2166 32.5428C31.5515 31.9397 31.4136 30.9829 30.8226 29.9222C30.1332 28.6535 29.9559 27.156 30.3105 25.7417C30.665 24.3066 31.5318 23.1211 32.7531 22.3931L36.1609 20.3341C38.3869 18.9406 41.322 19.7517 42.6615 22.1436L42.8978 22.5595C44.0601 24.681 45.6556 24.681 46.8179 22.5595L47.0345 22.1644C48.374 19.7517 51.3091 18.9406 53.5548 20.3549L56.9429 22.4139C58.1445 23.1419 59.0113 24.3274 59.3855 25.7625C59.7401 27.1976 59.5628 28.6743 58.8734 29.943C58.3021 31.0037 58.1445 31.9605 58.4794 32.5636C58.8143 33.1668 59.6613 33.5204 60.8235 33.5204C63.6995 33.5204 66.0436 35.9954 66.0436 39.032V42.6925C66.0436 45.7291 63.6995 48.2041 60.8235 48.2041C59.6613 48.2041 58.8143 48.5577 58.4794 49.1609C58.1445 49.764 58.2824 50.7208 58.8734 51.7815C59.5628 53.0502 59.7598 54.5477 59.3855 55.962C59.031 57.3971 58.1642 58.5826 56.9429 59.3106L53.5351 61.3696C52.7865 61.8064 51.9789 62.0352 51.1515 62.0352ZM44.8283 54.3397C46.5815 54.3397 48.2164 55.5044 49.3393 57.5635L49.556 57.9586C49.7923 58.3954 50.1863 58.7074 50.6591 58.8322C51.1318 58.957 51.6046 58.8946 51.9986 58.645L55.4064 56.5651C55.9186 56.2532 56.3126 55.7332 56.4701 55.1093C56.6277 54.4853 56.5489 53.8405 56.2535 53.2998C55.1306 51.2615 54.9928 49.1609 55.8595 47.5594C56.7262 45.9579 58.5188 45.0428 60.7644 45.0428C62.0251 45.0428 63.0298 43.982 63.0298 42.6509V38.9904C63.0298 37.6801 62.0251 36.5985 60.7644 36.5985C58.5188 36.5985 56.7262 35.6834 55.8595 34.0819C54.9928 32.4804 55.1306 30.3798 56.2535 28.3415C56.5489 27.8008 56.6277 27.156 56.4701 26.5321C56.3126 25.9081 55.9383 25.4089 55.4261 25.0762L52.0183 23.0171C51.1712 22.4763 50.0484 22.7883 49.5363 23.7035L49.3196 24.0986C48.1968 26.1577 46.5618 27.3224 44.8086 27.3224C43.0554 27.3224 41.4204 26.1577 40.2976 24.0986L40.0809 23.6827C39.5885 22.8091 38.4854 22.4971 37.6383 23.0171L34.2305 25.097C33.7183 25.4089 33.3243 25.9289 33.1667 26.5529C33.0092 27.1768 33.088 27.8216 33.3834 28.3623C34.5063 30.4006 34.6441 32.5012 33.7774 34.1027C32.9107 35.7042 31.1181 36.6193 28.8725 36.6193C27.6118 36.6193 26.6071 37.6801 26.6071 39.0112V42.6717C26.6071 43.982 27.6118 45.0636 28.8725 45.0636C31.1181 45.0636 32.9107 45.9787 33.7774 47.5802C34.6441 49.1817 34.5063 51.2823 33.3834 53.3206C33.088 53.8613 33.0092 54.5061 33.1667 55.1301C33.3243 55.754 33.6986 56.2532 34.2108 56.5859L37.6186 58.645C38.0323 58.9154 38.5248 58.9778 38.9778 58.853C39.4506 58.7282 39.8446 58.3954 40.1006 57.9586L40.3173 57.5635C41.4401 55.5252 43.0751 54.3397 44.8283 54.3397Z" fill="white"/>
</g>
</g>
</g>
<defs>
<filter id="filter0_di_4419_767" x="0" y="0" width="88" height="88" filterUnits="userSpaceOnUse" color-interpolation-filters="sRGB">
<feFlood flood-opacity="0" result="BackgroundImageFix"/>
<feColorMatrix in="SourceAlpha" type="matrix" values="0 0 0 0 0 0 0 0 0 0 0 0 0 0 0 0 0 0 127 0" result="hardAlpha"/>
<feMorphology radius="5" operator="erode" in="SourceAlpha" result="effect1_dropShadow_4419_767"/>
<feOffset dy="4"/>
<feGaussianBlur stdDeviation="5"/>
<feComposite in2="hardAlpha" operator="out"/>
<feColorMatrix type="matrix" values="0 0 0 0 0.916667 0 0 0 0 0.892882 0 0 0 0 0.882292 0 0 0 1 0"/>
<feBlend mode="normal" in2="BackgroundImageFix" result="effect1_dropShadow_4419_767"/>
<feBlend mode="normal" in="SourceGraphic" in2="effect1_dropShadow_4419_767" result="shape"/>
<feColorMatrix in="SourceAlpha" type="matrix" values="0 0 0 0 0 0 0 0 0 0 0 0 0 0 0 0 0 0 127 0" result="hardAlpha"/>
<feOffset dy="4"/>
<feGaussianBlur stdDeviation="2"/>
<feComposite in2="hardAlpha" operator="arithmetic" k2="-1" k3="1"/>
<feColorMatrix type="matrix" values="0 0 0 0 0.917647 0 0 0 0 0.894118 0 0 0 0 0.882353 0 0 0 0.25 0"/>
<feBlend mode="normal" in2="shape" result="effect2_innerShadow_4419_767"/>
</filter>
<linearGradient id="paint0_linear_4419_767" x1="44" y1="1" x2="44" y2="79" gradientUnits="userSpaceOnUse">
<stop stop-color="#FFF730"/>
<stop offset="1" stop-color="#E48F93" stop-opacity="0.7"/>
</linearGradient>
</defs>
</svg>
