<svg width="43" height="43" viewBox="0 0 43 43" fill="none" xmlns="http://www.w3.org/2000/svg">
<g id="Customer" clip-path="url(#clip0_7773_2886)">
<path id="Vector" d="M21.5 32.25H21.2313C20.6938 31.9812 16.125 29.8313 16.125 26.875V23.5156C16.125 23.1125 16.3937 22.8438 16.7969 22.8438C17.2 22.8438 17.4688 23.1125 17.4688 23.5156V26.875C17.4688 28.4875 20.1562 30.2344 21.5 30.7719C22.8438 30.1 25.5312 28.4875 25.5312 26.875V23.5156C25.5312 23.1125 25.8 22.8438 26.2031 22.8438C26.6062 22.8438 26.875 23.1125 26.875 23.5156V26.875C26.875 29.8313 22.3063 31.9812 21.7688 32.25H21.5Z" fill="#4F5266"/>
<path id="Vector_2" d="M21.5 25.5312C16.2594 25.5312 12.0938 21.3656 12.0938 16.125V12.7656C12.0938 12.3625 12.3625 12.0938 12.7656 12.0938C13.1688 12.0938 13.4375 12.3625 13.4375 12.7656V16.125C13.4375 20.5594 17.0656 24.1875 21.5 24.1875C25.9344 24.1875 29.5625 20.5594 29.5625 16.125V12.7656C29.5625 12.3625 29.8312 12.0938 30.2344 12.0938C30.6375 12.0938 30.9062 12.3625 30.9062 12.7656V16.125C30.9062 21.3656 26.7406 25.5312 21.5 25.5312Z" fill="#4F5266"/>
<path id="Vector_3" d="M30.2344 13.4384H29.5625C28.4875 13.4384 27.5469 12.4978 27.5469 11.4228V8.73526C24.725 10.8853 20.9625 11.6915 17.4688 11.0196L15.9906 10.7509C15.7219 10.7509 15.4531 11.0196 15.4531 11.4228C15.4531 12.4978 14.5125 13.4384 13.4375 13.4384H12.7656C12.3625 13.4384 12.0938 13.1696 12.0938 12.9009L10.8844 6.98838C10.6156 5.77901 10.8844 4.56963 11.6906 3.49463C12.3625 2.41963 13.4375 1.74776 14.6469 1.61338L23.7844 0.000884145C25.1281 -0.267866 26.4719 0.135259 27.4125 0.941509C28.3531 1.74776 28.8906 2.68838 29.025 3.89776C29.9656 4.03213 30.7719 4.56963 31.3094 5.24151C31.9812 6.18213 32.3844 7.25713 32.1156 8.46651L30.7719 12.9009C30.7719 13.304 30.5031 13.4384 30.2344 13.4384ZM27.5469 7.39151C27.8156 7.39151 27.95 7.39151 28.0844 7.52588C28.4875 7.79463 28.8906 8.19776 28.8906 8.73526V11.4228C28.8906 11.8259 29.1594 12.0946 29.5625 12.0946H29.6969L30.9062 8.19776C31.0406 7.52588 30.9062 6.71963 30.3687 6.18213C29.8313 5.64463 29.1594 5.24151 28.4875 5.24151C28.0844 5.24151 27.8156 4.97276 27.8156 4.56963C27.8156 3.49463 27.4125 2.68838 26.7406 2.01651C26.0688 1.47901 25.1281 1.21026 24.1875 1.34463L14.7812 2.95713C13.975 3.09151 13.1687 3.62901 12.6312 4.30088C12.2281 4.97276 11.9594 5.91338 12.0938 6.71963L13.1687 12.0946H13.4375C13.8406 12.0946 14.1094 11.8259 14.1094 11.4228C14.1094 10.3478 15.05 9.40713 16.125 9.40713L17.7375 9.67588C20.9625 10.3478 24.1875 9.54151 26.7406 7.66026C27.0094 7.52588 27.2781 7.39151 27.5469 7.39151ZM38.2969 43.0009H4.70312C4.3 43.0009 4.03125 42.7321 4.03125 42.329V36.4165C4.03125 33.1915 6.04688 30.3696 9.1375 29.429L16.6625 26.8759C17.0656 26.7415 17.3344 27.0103 17.4688 27.279C17.6031 27.5478 17.4688 28.0853 17.0656 28.2196L9.54063 30.7728C6.9875 31.4446 5.375 33.8634 5.375 36.4165V41.6571H37.625V36.4165C37.625 33.8634 36.0125 31.4446 33.4594 30.6384L25.9344 28.2196C25.5312 28.0853 25.3969 27.6821 25.5312 27.4134C25.6656 27.0103 26.0688 26.8759 26.3375 27.0103L33.8625 29.5634C36.9531 30.504 38.9688 33.3259 38.9688 36.5509V42.4634C38.9688 42.7321 38.7 43.0009 38.2969 43.0009Z" fill="#4F5266"/>
<path id="Vector_4" d="M38.2969 43H30.2344C29.8312 43 29.5625 42.7313 29.5625 42.3281V40.9844C29.5625 36.55 32.9219 32.7875 37.2219 32.3844C37.4906 32.3844 37.7594 32.5187 37.8937 32.6531C38.5656 33.8625 38.9688 35.0719 38.9688 36.4156V42.3281C38.9688 42.7313 38.7 43 38.2969 43ZM30.9062 41.6562H37.625V36.4156C37.625 35.475 37.3563 34.5344 36.9531 33.7281C33.4594 34.4 30.9062 37.3563 30.9062 40.9844V41.6562ZM12.7656 43H4.70312C4.3 43 4.03125 42.7313 4.03125 42.3281V36.4156C4.03125 35.0719 4.43437 33.7281 5.10625 32.6531C5.24062 32.3844 5.50938 32.25 5.77813 32.25C10.2125 32.7875 13.4375 36.55 13.4375 40.85V42.1938C13.4375 42.7312 13.1687 43 12.7656 43ZM5.375 41.6562H12.0938V40.9844C12.0938 37.3563 9.54063 34.4 6.04688 33.7281C5.64375 34.5344 5.375 35.475 5.375 36.4156V41.6562ZM32.9219 17.4688H30.2344C29.8312 17.4688 29.5625 17.2 29.5625 16.7969V12.7656C29.5625 12.3625 29.8312 12.0938 30.2344 12.0938H31.5781C32.6531 12.0938 33.5938 13.0344 33.5938 14.1094V16.7969C33.5938 17.2 33.325 17.4688 32.9219 17.4688ZM30.9062 16.125H32.25V14.1094C32.25 13.7062 31.9813 13.4375 31.5781 13.4375H30.9062V16.125Z" fill="#4F5266"/>
<path id="Vector_5" d="M28.8906 21.5H24.8594C24.4563 21.5 24.1875 21.2312 24.1875 20.8281C24.1875 20.425 24.4563 20.1562 24.8594 20.1562H28.8906C30.7719 20.1562 32.25 18.6781 32.25 16.7969V14.1094C32.25 13.7062 32.5187 13.4375 32.9219 13.4375C33.325 13.4375 33.5938 13.7062 33.5938 14.1094V16.7969C33.5938 19.35 31.4438 21.5 28.8906 21.5ZM12.7656 17.4688H11.4219C10.3469 17.4688 9.40625 16.5281 9.40625 15.4531V14.1094C9.40625 13.0344 10.3469 12.0938 11.4219 12.0938H12.7656C13.1688 12.0938 13.4375 12.3625 13.4375 12.7656V16.7969C13.4375 17.2 13.1688 17.4688 12.7656 17.4688ZM11.4219 13.4375C11.0187 13.4375 10.75 13.7062 10.75 14.1094V15.4531C10.75 15.8563 11.0187 16.125 11.4219 16.125H12.0938V13.4375H11.4219Z" fill="#4F5266"/>
<path id="Vector_6" d="M23.5156 22.8438H22.1719C21.0969 22.8438 20.1562 21.9031 20.1562 20.8281C20.1562 19.7531 21.0969 18.8125 22.1719 18.8125H23.5156C24.5906 18.8125 25.5312 19.7531 25.5312 20.8281C25.5312 21.9031 24.5906 22.8438 23.5156 22.8438ZM22.1719 20.1562C21.7687 20.1562 21.5 20.425 21.5 20.8281C21.5 21.2313 21.7687 21.5 22.1719 21.5H23.5156C23.9188 21.5 24.1875 21.2313 24.1875 20.8281C24.1875 20.425 23.9188 20.1562 23.5156 20.1562H22.1719Z" fill="#4F5266"/>
</g>
<defs>
<clipPath id="clip0_7773_2886">
<rect width="43" height="43" fill="white"/>
</clipPath>
</defs>
</svg>
