<svg width="24" height="24" viewBox="0 0 24 24" fill="none" xmlns="http://www.w3.org/2000/svg">
<g id="people" clip-path="url(#clip0_7774_2948)">
<path id="Vector" d="M7.7 10.8889C8.57024 10.8889 9.42093 10.6282 10.1445 10.1399C10.8681 9.6515 11.432 8.95738 11.7651 8.14526C12.0981 7.33315 12.1852 6.43952 12.0155 5.57738C11.8457 4.71524 11.4266 3.92332 10.8113 3.30175C10.1959 2.68018 9.41191 2.25689 8.5584 2.0854C7.70488 1.91391 6.82019 2.00193 6.01619 2.33832C5.2122 2.6747 4.52501 3.24436 4.04153 3.97525C3.55806 4.70613 3.3 5.56542 3.3 6.44445C3.3 7.62319 3.76357 8.75365 4.58873 9.58714C5.41389 10.4206 6.53305 10.8889 7.7 10.8889ZM7.7 4.22222C8.13512 4.22222 8.56047 4.35256 8.92225 4.59674C9.28404 4.84092 9.56602 5.18798 9.73254 5.59404C9.89905 6.0001 9.94262 6.44691 9.85773 6.87798C9.77284 7.30905 9.56331 7.70501 9.25563 8.01579C8.94796 8.32658 8.55596 8.53822 8.1292 8.62397C7.70244 8.70971 7.26009 8.66571 6.8581 8.49751C6.4561 8.32932 6.11251 8.04449 5.87077 7.67905C5.62903 7.3136 5.5 6.88396 5.5 6.44445C5.5 5.85508 5.73179 5.28984 6.14437 4.8731C6.55695 4.45635 7.11652 4.22222 7.7 4.22222ZM16.5 13.1111C17.1527 13.1111 17.7907 12.9156 18.3334 12.5493C18.8761 12.1831 19.299 11.6625 19.5488 11.0534C19.7986 10.4443 19.8639 9.77408 19.7366 9.12748C19.6093 8.48088 19.295 7.88693 18.8335 7.42076C18.3719 6.95458 17.7839 6.63711 17.1438 6.5085C16.5037 6.37988 15.8401 6.44589 15.2371 6.69818C14.6341 6.95047 14.1188 7.37771 13.7562 7.92588C13.3935 8.47404 13.2 9.11851 13.2 9.77778C13.2 10.6618 13.5477 11.5097 14.1665 12.1348C14.7854 12.7599 15.6248 13.1111 16.5 13.1111ZM16.5 8.66667C16.7176 8.66667 16.9302 8.73183 17.1111 8.85392C17.292 8.97602 17.433 9.14955 17.5163 9.35258C17.5995 9.5556 17.6213 9.77901 17.5789 9.99455C17.5364 10.2101 17.4317 10.4081 17.2778 10.5635C17.124 10.7188 16.928 10.8247 16.7146 10.8675C16.5012 10.9104 16.28 10.8884 16.0791 10.8043C15.8781 10.7202 15.7063 10.5778 15.5854 10.3951C15.4645 10.2124 15.4 9.99754 15.4 9.77778C15.4 9.48309 15.5159 9.20048 15.7222 8.99211C15.9285 8.78373 16.2083 8.66667 16.5 8.66667ZM16.5 14.2222C15.281 14.2236 14.097 14.634 13.134 15.3889C12.0566 14.3048 10.6855 13.5673 9.19361 13.2694C7.70175 12.9714 6.15595 13.1263 4.75115 13.7146C3.34635 14.3029 2.14545 15.2982 1.29992 16.5749C0.454376 17.8517 0.00205721 19.3528 0 20.8889C0 21.1836 0.115892 21.4662 0.322183 21.6746C0.528472 21.8829 0.808262 22 1.1 22C1.39174 22 1.67153 21.8829 1.87782 21.6746C2.08411 21.4662 2.2 21.1836 2.2 20.8889C2.2 19.4155 2.77946 18.0024 3.81091 16.9605C4.84236 15.9187 6.24131 15.3333 7.7 15.3333C9.15869 15.3333 10.5576 15.9187 11.5891 16.9605C12.6205 18.0024 13.2 19.4155 13.2 20.8889C13.2 21.1836 13.3159 21.4662 13.5222 21.6746C13.7285 21.8829 14.0083 22 14.3 22C14.5917 22 14.8715 21.8829 15.0778 21.6746C15.2841 21.4662 15.4 21.1836 15.4 20.8889C15.4026 19.5871 15.0771 18.3062 14.454 17.1667C14.9401 16.7787 15.5246 16.5367 16.1404 16.4685C16.7563 16.4003 17.3788 16.5086 17.9366 16.7811C18.4943 17.0535 18.9649 17.4791 19.2945 18.009C19.624 18.539 19.7992 19.1519 19.8 19.7778C19.8 20.0725 19.9159 20.3551 20.1222 20.5635C20.3285 20.7718 20.6083 20.8889 20.9 20.8889C21.1917 20.8889 21.4715 20.7718 21.6778 20.5635C21.8841 20.3551 22 20.0725 22 19.7778C22 18.3044 21.4205 16.8913 20.3891 15.8494C19.3576 14.8075 17.9587 14.2222 16.5 14.2222Z" fill="white"/>
</g>
<defs>
<clipPath id="clip0_7774_2948">
<rect width="24" height="24" fill="white"/>
</clipPath>
</defs>
</svg>
