<svg width="22" height="22" viewBox="0 0 22 22" fill="none" xmlns="http://www.w3.org/2000/svg">
<g id="Report">
<g id="Group">
<path id="Vector" d="M20.075 5.57695L14.8457 0.515234C14.5277 0.205859 14.0938 0.0296875 13.6469 0.0296875L3.79844 0.00390625C2.60391 0.00390625 1.63281 0.966406 1.63281 2.15234V19.8469C1.63281 21.0113 2.63398 21.9996 3.81992 21.9996H18.3863C19.5508 21.9996 20.4961 21.0328 20.4961 19.8426V6.60391C20.4961 6.2043 20.3457 5.83906 20.075 5.57695ZM14.8242 2.88711L17.527 5.49961H15.2926C15.0434 5.49961 14.8242 5.30625 14.8242 5.08711V2.88711ZM18.3863 20.2809H3.81992C3.5793 20.2809 3.35156 20.0703 3.35156 19.8426V2.15234C3.35156 1.92461 3.56211 1.72266 3.79844 1.72266L13.1055 1.74844V5.08711C13.1055 6.26016 14.0852 7.21836 15.2926 7.21836H18.7773V19.8426C18.7773 20.0574 18.6313 20.2809 18.3863 20.2809Z" fill="white"/>
<path id="Vector_2" d="M5.37109 11.4727C5.37109 11.9453 5.75781 12.332 6.23047 12.332H13.75C14.2227 12.332 14.6094 11.9453 14.6094 11.4727C14.6094 11 14.2227 10.6133 13.75 10.6133H6.23047C5.75781 10.6133 5.37109 11 5.37109 11.4727ZM6.1875 8.89453H11.1719C11.6445 8.89453 12.0312 8.50781 12.0312 8.03516C12.0312 7.5625 11.6445 7.17578 11.1719 7.17578H6.1875C5.71484 7.17578 5.32812 7.5625 5.32812 8.03516C5.32812 8.50781 5.71484 8.89453 6.1875 8.89453ZM15.8984 14.0508H6.23047C5.75781 14.0508 5.37109 14.4375 5.37109 14.9102C5.37109 15.3828 5.75781 15.7695 6.23047 15.7695H15.8984C16.3711 15.7695 16.7578 15.3828 16.7578 14.9102C16.7578 14.4375 16.3711 14.0508 15.8984 14.0508Z" fill="white"/>
</g>
</g>
</svg>
