<svg width="27" height="27" viewBox="0 0 27 27" fill="none" xmlns="http://www.w3.org/2000/svg">
<g id="Timer">
<path id="Vector" d="M20.7688 7.68435L21.9632 6.54873C22.2103 6.31113 22.3492 5.98887 22.3492 5.65285C22.3492 5.31683 22.2103 4.99458 21.9632 4.75698C21.716 4.51938 21.3808 4.38589 21.0313 4.38589C20.6818 4.38589 20.3466 4.51938 20.0994 4.75698L18.9182 5.90521C17.0788 4.53724 14.819 3.79503 12.4935 3.79503C10.1679 3.79503 7.90818 4.53724 6.06878 5.90521L4.87441 4.74436C4.62552 4.50676 4.28865 4.37394 3.93789 4.37512C3.58714 4.37631 3.25125 4.51139 3.0041 4.75067C2.75695 4.98994 2.61879 5.3138 2.62002 5.651C2.62125 5.98821 2.76177 6.31113 3.01066 6.54873L4.21816 7.69696C2.77837 9.46038 1.99713 11.638 2.00003 13.8798C1.99575 15.4891 2.39177 17.0761 3.15507 18.5084C3.91836 19.9407 5.02681 21.1768 6.38797 22.1135C7.74913 23.0503 9.32355 23.6607 10.9799 23.8937C12.6363 24.1266 14.3266 23.9755 15.9098 23.4529C17.4931 22.9303 18.9235 22.0513 20.0816 20.8893C21.2397 19.7272 22.0921 18.3158 22.5675 16.7728C23.043 15.2297 23.1278 13.5998 22.8149 12.0188C22.502 10.4378 21.8005 8.9517 20.7688 7.68435ZM12.5 21.4506C10.9425 21.4506 9.41996 21.0065 8.12492 20.1746C6.82988 19.3428 5.82052 18.1604 5.22448 16.777C4.62844 15.3936 4.47249 13.8714 4.77635 12.4028C5.08021 10.9342 5.83023 9.58521 6.93157 8.52642C8.03291 7.46763 9.4361 6.74658 10.9637 6.45446C12.4913 6.16234 14.0747 6.31226 15.5137 6.88528C16.9526 7.45829 18.1825 8.42866 19.0479 9.67367C19.9132 10.9187 20.375 12.3824 20.375 13.8798C20.375 15.8877 19.5454 17.8133 18.0685 19.2331C16.5917 20.6529 14.5886 21.4506 12.5 21.4506ZM9.87503 2.52359H15.125C15.4731 2.52359 15.807 2.39066 16.0531 2.15402C16.2993 1.91739 16.4375 1.59645 16.4375 1.2618C16.4375 0.927148 16.2993 0.606205 16.0531 0.369572C15.807 0.132939 15.4731 0 15.125 0H9.87503C9.52694 0 9.1931 0.132939 8.94696 0.369572C8.70082 0.606205 8.56253 0.927148 8.56253 1.2618C8.56253 1.59645 8.70082 1.91739 8.94696 2.15402C9.1931 2.39066 9.52694 2.52359 9.87503 2.52359ZM13.8125 10.0944C13.8125 9.75973 13.6743 9.43879 13.4281 9.20215C13.182 8.96552 12.8481 8.83258 12.5 8.83258C12.1519 8.83258 11.8181 8.96552 11.572 9.20215C11.3258 9.43879 11.1875 9.75973 11.1875 10.0944V12.4792C10.8903 12.7347 10.6809 13.071 10.5868 13.4435C10.4928 13.816 10.5186 14.2072 10.6609 14.5653C10.8032 14.9234 11.0552 15.2315 11.3836 15.4488C11.712 15.6662 12.1013 15.7826 12.5 15.7826C12.8988 15.7826 13.2881 15.6662 13.6165 15.4488C13.9449 15.2315 14.1969 14.9234 14.3392 14.5653C14.4815 14.2072 14.5073 13.816 14.4132 13.4435C14.3192 13.071 14.1097 12.7347 13.8125 12.4792V10.0944Z" fill="white"/>
</g>
</svg>
