<svg width="44" height="44" viewBox="0 0 44 44" fill="none" xmlns="http://www.w3.org/2000/svg">
<g id="&#240;&#159;&#166;&#134; icon &#34;book square&#34;">
<g id="Group">
<path id="Vector" d="M16 42H28C38 42 42 38 42 28V16C42 6 38 2 28 2H16C6 2 2 6 2 16V28C2 38 6 42 16 42Z" stroke="#292D32" stroke-width="3" stroke-linecap="round" stroke-linejoin="round"/>
<path id="Vector_2" d="M34.7621 28.5385V13.1585C34.7621 11.6185 33.5221 10.4985 32.0021 10.6185H31.9221C29.2421 10.8385 25.1821 12.2186 22.9021 13.6386L22.6821 13.7786C22.3221 13.9986 21.7021 13.9986 21.3221 13.7786L21.0021 13.5786C18.7421 12.1586 14.6822 10.8185 12.0022 10.5985C10.4822 10.4785 9.24219 11.6186 9.24219 13.1386V28.5385C9.24219 29.7585 10.2421 30.9185 11.4621 31.0585L11.8221 31.1185C14.5821 31.4785 18.8621 32.8985 21.3021 34.2385L21.3621 34.2585C21.7021 34.4585 22.2621 34.4585 22.5821 34.2585C25.0221 32.8985 29.3221 31.4985 32.1021 31.1185L32.5221 31.0585C33.7621 30.9185 34.7621 29.7785 34.7621 28.5385Z" stroke="#292D32" stroke-width="3" stroke-linecap="round" stroke-linejoin="round"/>
<path id="Vector_3" d="M22 14.1992V33.3192" stroke="#292D32" stroke-width="3" stroke-linecap="round" stroke-linejoin="round"/>
</g>
</g>
</svg>
