<svg width="44" height="44" viewBox="0 0 44 44" fill="none" xmlns="http://www.w3.org/2000/svg">
<g id="&#240;&#159;&#166;&#134; icon &#34;wallet money&#34;">
<g id="Group">
<path id="Vector" d="M19.503 30.8867V35.2756C19.503 38.9942 16.303 41.9993 12.3631 41.9993C8.42313 41.9993 5.20312 38.9942 5.20312 35.2756V30.8867C5.20312 34.6053 8.40313 37.243 12.3631 37.243C16.303 37.243 19.503 34.5837 19.503 30.8867Z" stroke="#292D32" stroke-width="3" stroke-linecap="round" stroke-linejoin="round"/>
<path id="Vector_2" d="M19.4996 24.9385C19.4996 26.0195 19.2196 27.014 18.7396 27.8788C17.5595 29.9759 15.1395 31.2947 12.3395 31.2947C9.53954 31.2947 7.11955 29.9543 5.93956 27.8788C5.45956 27.014 5.17969 26.0195 5.17969 24.9385C5.17969 23.0792 5.97964 21.4144 7.25962 20.2037C8.55961 18.9714 10.3395 18.2363 12.3195 18.2363C14.2995 18.2363 16.0795 18.993 17.3795 20.2037C18.6996 21.3928 19.4996 23.0792 19.4996 24.9385Z" stroke="#292D32" stroke-width="3" stroke-linecap="round" stroke-linejoin="round"/>
<path id="Vector_3" d="M19.503 24.9386V30.8841C19.503 34.6027 16.303 37.2403 12.3631 37.2403C8.42313 37.2403 5.20312 34.5811 5.20312 30.8841V24.9386C5.20312 21.22 8.40313 18.2148 12.3631 18.2148C14.3431 18.2148 16.1231 18.9715 17.4231 20.1823C18.7031 21.393 19.503 23.0793 19.503 24.9386Z" stroke="#292D32" stroke-width="3" stroke-linecap="round" stroke-linejoin="round"/>
<path id="Vector_4" d="M42.0003 18.1485V22.6024C42.0003 23.7915 41.1203 24.7642 40.0004 24.8074H36.0802C33.9202 24.8074 31.9404 23.0994 31.7604 20.7645C31.6404 19.4024 32.1202 18.1269 32.9602 17.2404C33.7002 16.4189 34.7204 15.9434 35.8404 15.9434H40.0004C41.1203 15.9866 42.0003 16.9594 42.0003 18.1485Z" stroke="#292D32" stroke-width="3" stroke-linecap="round" stroke-linejoin="round"/>
<path id="Vector_5" d="M2 17.1339V12.8099C2 6.92933 5.27996 2.82155 10.3799 2.12972C10.8999 2.04324 11.4399 2 11.9999 2H29.9997C30.5197 2 31.0197 2.0216 31.4997 2.10808C36.6596 2.75667 39.9996 6.88609 39.9996 12.8099V15.9448H35.8396C34.7196 15.9448 33.6996 16.4205 32.9597 17.242C32.1197 18.1284 31.6397 19.404 31.7597 20.766C31.9397 23.101 33.9196 24.809 36.0796 24.809H39.9996V27.9438C39.9996 34.4298 35.9996 38.7538 29.9997 38.7538H24.9997" stroke="#292D32" stroke-width="3" stroke-linecap="round" stroke-linejoin="round"/>
</g>
</g>
</svg>
