<svg width="40" height="40" viewBox="0 0 40 40" fill="none" xmlns="http://www.w3.org/2000/svg">
<g id="&#240;&#159;&#166;&#134; icon &#34;document download&#34;">
<g id="Group">
<path id="Vector" d="M14.4188 30.6976C14.2327 30.6976 14.0653 30.6604 13.8793 30.586C13.3583 30.3814 13.0234 29.8604 13.0234 29.3023V18.1395C13.0234 17.3767 13.656 16.7441 14.4188 16.7441C15.1816 16.7441 15.8141 17.3767 15.8141 18.1395V25.9348L17.1537 24.5953C17.6932 24.0558 18.5862 24.0558 19.1258 24.5953C19.6653 25.1348 19.6653 26.0279 19.1258 26.5674L15.4048 30.2883C15.1444 30.5488 14.7723 30.6976 14.4188 30.6976Z" fill="#292D32"/>
<path id="Vector_2" d="M14.4124 30.6964C14.0589 30.6964 13.7054 30.5662 13.4264 30.2871L9.70543 26.5662C9.1659 26.0267 9.1659 25.1336 9.70543 24.5941C10.245 24.0546 11.138 24.0546 11.6775 24.5941L15.3985 28.315C15.938 28.8546 15.938 29.7476 15.3985 30.2871C15.1194 30.5662 14.7659 30.6964 14.4124 30.6964Z" fill="#292D32"/>
<path id="Vector_3" d="M25.5814 40H14.4186C4.31628 40 0 35.6837 0 25.5814V14.4186C0 4.31628 4.31628 0 14.4186 0H23.7209C24.4837 0 25.1163 0.632558 25.1163 1.39535C25.1163 2.15814 24.4837 2.7907 23.7209 2.7907H14.4186C5.84186 2.7907 2.7907 5.84186 2.7907 14.4186V25.5814C2.7907 34.1581 5.84186 37.2093 14.4186 37.2093H25.5814C34.1581 37.2093 37.2093 34.1581 37.2093 25.5814V16.2791C37.2093 15.5163 37.8419 14.8837 38.6047 14.8837C39.3674 14.8837 40 15.5163 40 16.2791V25.5814C40 35.6837 35.6837 40 25.5814 40Z" fill="#292D32"/>
<path id="Vector_4" d="M38.6033 17.6756H31.1614C24.7986 17.6756 22.3242 15.2012 22.3242 8.83837V1.39651C22.3242 0.838369 22.6591 0.317439 23.18 0.112788C23.701 -0.110468 24.2963 0.0197646 24.7056 0.410462L39.5893 15.2942C39.98 15.6849 40.1103 16.2989 39.887 16.8198C39.6638 17.3407 39.1614 17.6756 38.6033 17.6756ZM25.1149 4.76395V8.83837C25.1149 13.6384 26.3614 14.8849 31.1614 14.8849H35.2358L25.1149 4.76395Z" fill="#292D32"/>
</g>
</g>
</svg>
