<svg width="44" height="44" viewBox="0 0 44 44" fill="none" xmlns="http://www.w3.org/2000/svg">
<g id="&#240;&#159;&#166;&#134; icon &#34;gallery&#34;">
<g id="Group">
<path id="Vector" d="M15.9987 42H27.9976C37.9967 42 41.9963 38 41.9963 28V16C41.9963 6 37.9967 2 27.9976 2H15.9987C5.99963 2 2 6 2 16V28C2 38 5.99963 42 15.9987 42Z" stroke="#292D32" stroke-width="3" stroke-linecap="round" stroke-linejoin="round"/>
<path id="Vector_2" d="M15.9996 18C18.2086 18 19.9993 16.2091 19.9993 14C19.9993 11.7909 18.2086 10 15.9996 10C13.7907 10 12 11.7909 12 14C12 16.2091 13.7907 18 15.9996 18Z" stroke="#292D32" stroke-width="3" stroke-linecap="round" stroke-linejoin="round"/>
<path id="Vector_3" d="M3.34375 35.9011L13.2028 29.2811C14.7827 28.2211 17.0625 28.3411 18.4823 29.5611L19.1422 30.1411C20.7021 31.4811 23.2218 31.4811 24.7817 30.1411L33.1009 23.0011C34.6608 21.6611 37.1806 21.6611 38.7404 23.0011L42.0001 25.8011" stroke="#292D32" stroke-width="3" stroke-linecap="round" stroke-linejoin="round"/>
</g>
</g>
</svg>
