<svg width="40" height="40" viewBox="0 0 40 40" fill="none" xmlns="http://www.w3.org/2000/svg">
<g id="&#240;&#159;&#166;&#134; icon &#34;gift&#34;">
<g id="Group">
<path id="Vector" d="M27.7452 39.9996H12.1355C5.46231 39.9996 2.86719 37.5247 2.86719 31.1608V16.2745C2.86719 15.5116 3.5306 14.8789 4.3306 14.8789H35.5501C36.3501 14.8789 37.0135 15.5116 37.0135 16.2745V31.1608C37.0135 37.5247 34.4184 39.9996 27.7452 39.9996ZM5.79402 17.6701V31.1608C5.79402 35.9617 7.10133 37.2084 12.1355 37.2084H27.7452C32.7794 37.2084 34.0867 35.9617 34.0867 31.1608V17.6701H5.79402Z" fill="#292D32"/>
<path id="Vector_2" d="M34.6341 17.6713H5.36585C1.95122 17.6713 0 15.8105 0 12.5541V10.6934C0 7.43696 1.95122 5.57617 5.36585 5.57617H34.6341C37.9512 5.57617 40 7.53 40 10.6934V12.5541C40 15.7175 37.9512 17.6713 34.6341 17.6713ZM5.36585 8.36736C3.59024 8.36736 2.92683 9.00003 2.92683 10.6934V12.5541C2.92683 14.2475 3.59024 14.8801 5.36585 14.8801H34.6341C36.3512 14.8801 37.0732 14.1916 37.0732 12.5541V10.6934C37.0732 9.05585 36.3512 8.36736 34.6341 8.36736H5.36585Z" fill="#292D32"/>
<path id="Vector_3" d="M19.2964 8.36426H8.52568C8.11592 8.36426 7.72568 8.19679 7.45251 7.91767C6.26226 6.67094 6.30129 4.75432 7.55007 3.56342L10.3208 0.921092C11.6086 -0.307031 13.7354 -0.307031 15.0232 0.921092L20.3305 5.98245C20.7403 6.37321 20.8769 6.98728 20.6427 7.5083C20.4281 8.02932 19.9013 8.36426 19.2964 8.36426ZM9.59885 5.57307H15.7842L12.9549 2.89353C12.7988 2.74467 12.5452 2.74467 12.3891 2.89353L9.61836 5.53586C9.61836 5.55447 9.59885 5.55447 9.59885 5.57307Z" fill="#292D32"/>
<path id="Vector_4" d="M31.4539 8.36426H20.6832C20.0978 8.36426 19.5515 8.02932 19.3368 7.5083C19.1027 6.98728 19.2393 6.39182 19.649 5.98245L24.9564 0.921092C26.2442 -0.307031 28.371 -0.307031 29.6588 0.921092L32.4295 3.56342C33.6783 4.75432 33.7368 6.67094 32.5271 7.91767C32.2539 8.19679 31.8637 8.36426 31.4539 8.36426ZM24.2344 5.57307H30.4198C30.4003 5.55447 30.4003 5.55447 30.3808 5.53586L27.61 2.89353C27.4539 2.74467 27.2003 2.74467 27.0442 2.89353L24.2344 5.57307Z" fill="#292D32"/>
<path id="Vector_5" d="M15.9771 29.114C15.4308 29.114 14.8649 28.9837 14.3576 28.7232C13.2454 28.1464 12.5625 27.0485 12.5625 25.8576V16.2745C12.5625 15.5116 13.2259 14.8789 14.0259 14.8789H25.8114C26.6114 14.8789 27.2748 15.5116 27.2748 16.2745V25.8204C27.2748 27.0299 26.5919 28.1277 25.4797 28.686C24.3675 29.2628 23.0211 29.1884 21.9675 28.5185L20.2309 27.402C20.0748 27.2904 19.8602 27.2904 19.6845 27.402L17.8504 28.5557C17.2845 28.9279 16.6211 29.114 15.9771 29.114ZM15.4893 17.6701V25.839C15.4893 26.0809 15.6454 26.1925 15.743 26.2483C15.8405 26.3042 16.0357 26.36 16.2504 26.2297L18.0845 25.076C19.2358 24.3503 20.7187 24.3503 21.8504 25.076L23.587 26.1925C23.8016 26.3228 23.9967 26.267 24.0943 26.2111C24.1919 26.1553 24.348 26.0437 24.348 25.8018V17.6515H15.4893V17.6701Z" fill="#292D32"/>
</g>
</g>
</svg>
