<svg width="40" height="40" viewBox="0 0 40 40" fill="none" xmlns="http://www.w3.org/2000/svg">
<g id="&#240;&#159;&#166;&#134; icon &#34;info circle&#34;">
<g id="Group">
<path id="Vector" d="M20 40C8.96744 40 0 31.0326 0 20C0 8.96744 8.96744 0 20 0C31.0326 0 40 8.96744 40 20C40 31.0326 31.0326 40 20 40ZM20 2.7907C10.5116 2.7907 2.7907 10.5116 2.7907 20C2.7907 29.4884 10.5116 37.2093 20 37.2093C29.4884 37.2093 37.2093 29.4884 37.2093 20C37.2093 10.5116 29.4884 2.7907 20 2.7907Z" fill="#292D32"/>
<path id="Vector_2" d="M20.0008 23.2551C19.238 23.2551 18.6055 22.6226 18.6055 21.8598V12.5575C18.6055 11.7947 19.238 11.1621 20.0008 11.1621C20.7636 11.1621 21.3962 11.7947 21.3962 12.5575V21.8598C21.3962 22.6226 20.7636 23.2551 20.0008 23.2551Z" fill="#292D32"/>
<path id="Vector_3" d="M20.0011 29.3044C19.7592 29.3044 19.5174 29.2486 19.2941 29.1556C19.0709 29.0625 18.8662 28.9323 18.6802 28.7649C18.5127 28.5788 18.3825 28.3928 18.2895 28.1509C18.1964 27.9277 18.1406 27.6858 18.1406 27.4439C18.1406 27.2021 18.1964 26.9602 18.2895 26.737C18.3825 26.5137 18.5127 26.3091 18.6802 26.123C18.8662 25.9556 19.0709 25.8253 19.2941 25.7323C19.7406 25.5463 20.2616 25.5463 20.7081 25.7323C20.9313 25.8253 21.136 25.9556 21.322 26.123C21.4895 26.3091 21.6197 26.5137 21.7127 26.737C21.8057 26.9602 21.8616 27.2021 21.8616 27.4439C21.8616 27.6858 21.8057 27.9277 21.7127 28.1509C21.6197 28.3928 21.4895 28.5788 21.322 28.7649C21.136 28.9323 20.9313 29.0625 20.7081 29.1556C20.4848 29.2486 20.243 29.3044 20.0011 29.3044Z" fill="#292D32"/>
</g>
</g>
</svg>
