<svg width="44" height="44" viewBox="0 0 44 44" fill="none" xmlns="http://www.w3.org/2000/svg">
<g id="&#240;&#159;&#166;&#134; icon &#34;mobile&#34;">
<g id="Group">
<path id="Vector" d="M42 12V32C42 40 39.5 42 29.5 42H14.5C4.5 42 2 40 2 32V12C2 4 4.5 2 14.5 2H29.5C39.5 2 42 4 42 12Z" stroke="#292D32" stroke-width="3" stroke-linecap="round" stroke-linejoin="round"/>
<path id="Vector_2" d="M27 9H17" stroke="#292D32" stroke-width="3" stroke-linecap="round" stroke-linejoin="round"/>
<path id="Vector_3" d="M21.9961 36.2C24.1362 36.2 25.8712 34.812 25.8712 33.1C25.8712 31.388 24.1362 30 21.9961 30C19.856 30 18.1211 31.388 18.1211 33.1C18.1211 34.812 19.856 36.2 21.9961 36.2Z" stroke="#292D32" stroke-width="3" stroke-linecap="round" stroke-linejoin="round"/>
</g>
</g>
</svg>
