<svg width="44" height="44" viewBox="0 0 44 44" fill="none" xmlns="http://www.w3.org/2000/svg">
<g id="&#240;&#159;&#166;&#134; icon &#34;video&#34;">
<g id="Group">
<path id="Vector" d="M23.0611 42H10.4204C4.10011 42 2 37.0119 2 32V12C2 4.49406 4.10011 2 10.4204 2H23.0611C29.3814 2 31.4815 4.49406 31.4815 12V32C31.4815 39.5059 29.3614 42 23.0611 42Z" stroke="#292D32" stroke-width="3" stroke-linecap="round" stroke-linejoin="round"/>
<path id="Vector_2" d="M37.0409 34.1135L31.4805 29.4817V14.4936L37.0409 9.86176C39.7612 7.60523 42.0014 8.9829 42.0014 12.9496V31.0494C42.0014 35.0161 39.7612 36.3938 37.0409 34.1135Z" stroke="#292D32" stroke-width="3" stroke-linecap="round" stroke-linejoin="round"/>
<path id="Vector_3" d="M21.0003 19.6239C22.6572 19.6239 24.0005 18.0287 24.0005 16.061C24.0005 14.0932 22.6572 12.498 21.0003 12.498C19.3433 12.498 18 14.0932 18 16.061C18 18.0287 19.3433 19.6239 21.0003 19.6239Z" stroke="#292D32" stroke-width="3" stroke-linecap="round" stroke-linejoin="round"/>
</g>
</g>
</svg>
